<svg width="256" height="281" viewBox="0 0 256 281" fill="none" xmlns="http://www.w3.org/2000/svg">
<g clip-path="url(#clip0)">
<path d="M78.2359 57.0088C95.9819 54.1775 116.191 52.6667 137.237 52.6667C156.498 52.6667 175.055 53.9301 191.662 56.3124C191.658 56.0574 191.655 55.8024 191.643 55.5475C191.203 40.7475 184.99 26.7068 174.331 16.4263C163.673 6.14584 149.415 0.441184 134.605 0.531638C119.795 0.622093 105.608 6.50048 95.0761 16.9104C84.5442 27.3203 78.5029 41.4358 78.2435 56.2401C78.2396 56.4989 78.2359 56.7538 78.2359 57.0088Z" fill="#1E88E5"/>
<g opacity="0.1">
<path opacity="0.1" d="M127.511 0.51045C135.388 -0.553226 143.401 0.0496343 151.029 2.27996C158.658 4.51028 165.733 8.31829 171.796 13.4572C177.859 18.5961 182.773 24.9512 186.222 32.1107C189.671 39.2701 191.576 47.0741 191.815 55.0169C191.827 55.2719 191.83 55.5269 191.834 55.7818C186.9 55.0741 181.791 54.4676 176.545 53.9612C175.904 40.7288 170.649 28.1386 161.692 18.3751C152.735 8.61166 140.642 2.29119 127.511 0.51045Z" fill="white"/>
</g>
<path d="M53.4249 61.5069C61.5938 59.293 69.8794 57.5347 78.2435 56.24C91.9523 54.1162 105.773 52.7884 119.635 52.2632C125.41 52.0273 131.291 51.9055 137.237 51.9055C141.949 51.9055 146.624 51.9816 151.233 52.1338C164.756 52.5333 178.246 53.6728 191.643 55.5474C201.561 56.9127 211.382 58.9032 221.049 61.5069C243.587 67.7366 256 76.086 256 85.0139C256 93.9417 243.587 102.291 221.049 108.521C205.198 112.905 185.656 115.892 164.362 117.262C155.573 117.833 146.487 118.122 137.237 118.122C127.957 118.122 118.84 117.829 110.024 117.258C90.6451 116.006 72.7164 113.415 57.7111 109.647C57.6312 109.624 57.555 109.605 57.4751 109.586C56.4625 109.335 55.4653 109.073 54.4793 108.81C54.1254 108.711 53.7753 108.616 53.4249 108.521C53.4052 108.513 53.3849 108.506 53.3641 108.502C53.029 108.41 52.698 108.315 52.3668 108.224C51.7044 108.034 51.0497 107.847 50.4065 107.653C50.376 107.646 50.3494 107.638 50.3226 107.63C49.7632 107.463 49.2149 107.295 48.6707 107.128C48.2253 106.987 47.7837 106.85 47.346 106.709C47.0261 106.607 46.7102 106.504 46.3981 106.401C46.1697 106.325 45.9451 106.253 45.7243 106.177C45.4236 106.078 45.1229 105.975 44.826 105.872C44.7004 105.83 44.5748 105.788 44.453 105.743C44.1675 105.648 43.8897 105.549 43.6118 105.45C43.3111 105.343 43.0103 105.233 42.7135 105.126C42.4659 105.039 42.2186 104.947 41.9751 104.856C41.7695 104.776 41.5677 104.7 41.3621 104.624C40.8026 104.415 40.2543 104.198 39.7138 103.985C39.4436 103.874 39.1734 103.768 38.907 103.657C38.6444 103.551 38.3779 103.44 38.1189 103.33C37.6927 103.151 37.2741 102.972 36.8629 102.793C36.6649 102.702 36.4631 102.615 36.269 102.531C36.1205 102.462 35.9759 102.398 35.8274 102.329C35.7209 102.283 35.6142 102.234 35.5114 102.185C35.1271 102.009 34.7464 101.831 34.3734 101.652C32.942 100.967 31.606 100.267 30.3652 99.5511C22.5808 95.0948 18.4736 90.1514 18.4736 85.0139C18.4736 76.086 30.8866 67.7366 53.4249 61.5069ZM53.6305 107.79C69.4998 112.178 89.0957 115.165 110.447 116.524C119.129 117.076 128.105 117.361 137.237 117.361C146.338 117.361 155.284 117.079 163.939 116.528C185.325 115.173 204.951 112.186 220.843 107.79C243.024 101.656 255.239 93.5687 255.239 85.0139C255.237 84.2579 255.143 83.5051 254.957 82.7724C253.016 75.0547 241.075 67.8318 220.843 62.2376C211.25 59.6541 201.504 57.6752 191.662 56.3123C178.184 54.4271 164.612 53.2837 151.009 52.8873C146.471 52.7389 141.881 52.6654 137.237 52.6666C131.371 52.6666 125.57 52.7846 119.868 53.0129C105.924 53.5334 92.0235 54.8676 78.2358 57.0088C69.944 58.2976 61.7297 60.0432 53.6305 62.2376C33.4026 67.8318 21.4654 75.0509 19.5204 82.7648C19.3314 83.4996 19.2355 84.2552 19.2349 85.0139C19.2349 93.5687 31.4499 101.656 53.6305 107.79Z" fill="#3F3D56"/>
<path d="M18.6904 85.3601C18.6904 90.4444 22.8815 95.2546 30.3652 99.551C31.6097 100.266 32.9496 100.967 34.3734 101.652C34.7464 101.831 35.127 102.009 35.5114 102.184C35.6142 102.234 35.7209 102.283 35.8274 102.329C35.9759 102.398 36.1205 102.462 36.269 102.531C36.463 102.615 36.6649 102.702 36.8628 102.793C37.274 102.972 37.6926 103.151 38.1189 103.33C38.3778 103.44 38.6443 103.551 38.907 103.657C39.1733 103.768 39.4436 103.874 39.7138 103.984C40.2543 104.198 40.8026 104.415 41.3621 104.624C41.5676 104.7 41.7695 104.776 41.975 104.856C42.2185 104.947 42.4659 105.039 42.7135 105.126C43.0103 105.233 43.311 105.343 43.6118 105.45C43.8896 105.549 44.1675 105.648 44.453 105.743C44.5747 105.788 44.7004 105.83 44.826 105.872C45.1228 105.975 45.4236 106.078 45.7243 106.177C45.9451 106.253 46.1696 106.325 46.3981 106.401C46.7103 106.504 47.0263 106.607 47.346 106.709C47.7837 106.85 48.2253 106.987 48.6706 107.128C49.2148 107.295 49.7632 107.463 50.3226 107.63C50.3494 107.638 50.3759 107.645 50.4064 107.653C51.0497 107.847 51.7043 108.034 52.3667 108.224C52.698 108.315 53.029 108.41 53.3641 108.502C53.3849 108.506 53.4052 108.513 53.4249 108.521C53.7752 108.616 54.1254 108.711 54.4793 108.81C55.4614 109.069 56.4625 109.331 57.4751 109.586C57.555 109.605 57.6312 109.624 57.7111 109.647C72.3091 113.293 90.2187 115.949 110.039 117.232C118.722 117.791 127.774 118.088 137.073 118.088C146.456 118.088 155.584 117.787 164.335 117.216C216.576 113.81 255.456 100.841 255.456 85.3601C255.451 84.4181 255.308 83.482 255.029 82.582C255.007 82.6467 254.984 82.7076 254.957 82.7723C249.525 97.0356 210.976 108.563 160.959 111.375C153.296 111.809 145.36 112.033 137.237 112.033C129.079 112.033 121.112 111.805 113.419 111.371C63.4437 108.547 24.9331 97.0165 19.5203 82.7647C19.4289 82.5364 19.349 82.308 19.2806 82.0797C18.8946 83.1306 18.6949 84.2407 18.6904 85.3601Z" fill="#3F3D56"/>
<path d="M221.106 81.2638C227.441 81.2638 234.174 79.9012 234.174 77.3758C234.174 74.8503 227.441 73.4877 221.106 73.4877C214.771 73.4877 208.038 74.8503 208.038 77.3758C208.038 79.9012 214.771 81.2638 221.106 81.2638ZM221.106 74.2488C228.359 74.2488 233.413 75.8969 233.413 77.3758C233.413 78.8547 228.359 80.5027 221.106 80.5027C213.854 80.5027 208.799 78.8547 208.799 77.3758C208.799 75.8969 213.854 74.2488 221.106 74.2488Z" fill="#3F3D56"/>
<path d="M194.08 99.15C200.415 99.15 207.148 97.7874 207.148 95.2619C207.148 92.7364 200.415 91.3738 194.08 91.3738C187.745 91.3738 181.012 92.7364 181.012 95.2619C181.012 97.7874 187.745 99.15 194.08 99.15ZM194.08 92.135C201.332 92.135 206.386 93.783 206.386 95.2619C206.386 96.7408 201.332 98.3889 194.08 98.3889C186.827 98.3889 181.773 96.7408 181.773 95.2619C181.773 93.783 186.827 92.135 194.08 92.135Z" fill="#3F3D56"/>
<path d="M53.6195 81.2638C59.9545 81.2638 66.6875 79.9012 66.6875 77.3758C66.6875 74.8503 59.9545 73.4877 53.6195 73.4877C47.2844 73.4877 40.5514 74.8503 40.5514 77.3758C40.5514 79.9012 47.2844 81.2638 53.6195 81.2638ZM53.6195 74.2488C60.8721 74.2488 65.9262 75.8969 65.9262 77.3758C65.9262 78.8547 60.8721 80.5027 53.6195 80.5027C46.367 80.5027 41.3127 78.8547 41.3127 77.3758C41.3127 75.8969 46.367 74.2488 53.6195 74.2488Z" fill="#3F3D56"/>
<path d="M80.6457 99.15C86.9807 99.15 93.7136 97.7874 93.7136 95.2619C93.7136 92.7364 86.9807 91.3738 80.6457 91.3738C74.3105 91.3738 67.5776 92.7364 67.5776 95.2619C67.5776 97.7874 74.3105 99.15 80.6457 99.15ZM80.6457 92.135C87.8982 92.135 92.9523 93.783 92.9523 95.2619C92.9523 96.7408 87.8982 98.3889 80.6457 98.3889C73.3931 98.3889 68.3389 96.7408 68.3389 95.2619C68.3389 93.783 73.3931 92.135 80.6457 92.135Z" fill="#3F3D56"/>
<path d="M137.363 107.522C143.698 107.522 150.431 106.16 150.431 103.634C150.431 101.109 143.698 99.746 137.363 99.746C131.028 99.746 124.295 101.109 124.295 103.634C124.295 106.16 131.028 107.522 137.363 107.522ZM137.363 100.507C144.615 100.507 149.669 102.155 149.669 103.634C149.669 105.113 144.615 106.761 137.363 106.761C130.11 106.761 125.056 105.113 125.056 103.634C125.056 102.155 130.11 100.507 137.363 100.507Z" fill="#3F3D56"/>
<path d="M127.729 187.506C118.897 187.506 111.737 180.348 111.737 171.518C111.737 162.688 118.897 155.53 127.729 155.53C136.561 155.53 143.721 162.688 143.721 171.518C143.721 180.348 136.561 187.506 127.729 187.506Z" fill="#2F2E41"/>
<path d="M133.81 182.022L141.593 185.919L139.418 190.262L131.635 186.365L133.81 182.022Z" fill="#2F2E41"/>
<path d="M138.392 189.821C137.93 189.121 139.069 187.556 140.936 186.326C142.803 185.095 144.69 184.665 145.152 185.365C145.613 186.065 144.474 187.63 142.608 188.86C140.741 190.091 138.853 190.521 138.392 189.821Z" fill="#2F2E41"/>
<path d="M121.648 182.022L123.823 186.365L116.04 190.262L113.865 185.919L121.648 182.022Z" fill="#2F2E41"/>
<path d="M112.85 188.86C110.984 187.63 109.844 186.065 110.306 185.365C110.768 184.665 112.655 185.095 114.522 186.326C116.389 187.556 117.528 189.121 117.066 189.821C116.605 190.521 114.717 190.091 112.85 188.86Z" fill="#2F2E41"/>
<path d="M128.849 173.072C125.83 173.072 123.383 170.625 123.383 167.607C123.383 164.589 125.83 162.143 128.849 162.143C131.867 162.143 134.314 164.589 134.314 167.607C134.314 170.625 131.867 173.072 128.849 173.072Z" fill="white"/>
<path d="M127.519 166.56C126.81 165.851 126.814 164.699 127.528 163.986C128.242 163.272 129.394 163.268 130.103 163.976C130.811 164.685 130.807 165.837 130.094 166.551C129.38 167.264 128.227 167.268 127.519 166.56Z" fill="#3F3D56"/>
<path d="M115.114 154.125C114.873 148.206 119.976 143.192 126.511 142.927C133.045 142.662 138.538 147.245 138.778 153.164C139.019 159.083 134.476 160.428 127.941 160.693C121.407 160.958 115.354 160.044 115.114 154.125Z" fill="#1E88E5"/>
<path d="M105.895 179.89C104.843 178.987 106.322 175.54 109.199 172.19C112.075 168.84 115.26 166.856 116.312 167.759C117.364 168.662 115.885 172.109 113.008 175.459C110.132 178.809 106.947 180.793 105.895 179.89Z" fill="#2F2E41"/>
<path d="M142.405 175.459C139.528 172.109 138.049 168.662 139.101 167.759C140.153 166.856 143.338 168.84 146.214 172.19C149.091 175.54 150.57 178.987 149.518 179.89C148.466 180.793 145.281 178.809 142.405 175.459Z" fill="#2F2E41"/>
<path d="M123.337 177.819C123.164 178.769 123.375 179.75 123.925 180.544C124.475 181.339 125.318 181.882 126.269 182.055C127.22 182.228 128.2 182.017 128.995 181.467C129.79 180.917 130.333 180.074 130.506 179.124L130.508 179.117C130.866 177.137 129.335 176.436 127.355 176.078C125.375 175.72 123.695 175.839 123.337 177.819Z" fill="white"/>
<path d="M154.747 188.525C154.949 188.525 155.142 188.445 155.285 188.302C155.428 188.159 155.508 187.966 155.508 187.764V142.858C155.508 142.656 155.428 142.463 155.285 142.32C155.142 142.177 154.949 142.097 154.747 142.097C154.545 142.097 154.351 142.177 154.208 142.32C154.066 142.463 153.985 142.656 153.985 142.858V187.764C153.985 187.966 154.066 188.159 154.208 188.302C154.351 188.445 154.545 188.525 154.747 188.525Z" fill="#CCCCCC"/>
<path d="M166.166 228.864C166.368 228.864 166.562 228.784 166.704 228.641C166.847 228.498 166.927 228.305 166.927 228.103V195.375C166.927 195.173 166.847 194.98 166.705 194.837C166.562 194.694 166.368 194.614 166.166 194.614C165.964 194.614 165.771 194.694 165.628 194.837C165.485 194.98 165.405 195.173 165.405 195.375V228.103C165.405 228.305 165.485 228.498 165.628 228.641C165.771 228.784 165.964 228.864 166.166 228.864Z" fill="#CCCCCC"/>
<path d="M136.856 201.844C137.058 201.844 137.252 201.764 137.394 201.621C137.537 201.479 137.617 201.285 137.617 201.083V156.178C137.617 155.976 137.537 155.782 137.394 155.64C137.252 155.497 137.058 155.417 136.856 155.417C136.654 155.417 136.461 155.497 136.318 155.64C136.175 155.782 136.095 155.976 136.095 156.178V201.083C136.095 201.285 136.175 201.479 136.318 201.621C136.461 201.764 136.654 201.844 136.856 201.844Z" fill="#CCCCCC"/>
<path d="M147.895 234.192C148.097 234.192 148.29 234.111 148.433 233.969C148.576 233.826 148.656 233.632 148.656 233.431V215.164C148.656 214.962 148.576 214.768 148.433 214.626C148.291 214.483 148.097 214.403 147.895 214.403C147.693 214.403 147.499 214.483 147.357 214.626C147.214 214.768 147.134 214.962 147.134 215.164V233.431C147.134 233.632 147.214 233.826 147.357 233.969C147.499 234.111 147.693 234.192 147.895 234.192Z" fill="#CCCCCC"/>
<path d="M132.288 140.575C132.49 140.575 132.684 140.495 132.827 140.352C132.969 140.209 133.05 140.016 133.05 139.814V121.547C133.05 121.345 132.969 121.152 132.827 121.009C132.684 120.866 132.49 120.786 132.288 120.786C132.086 120.786 131.893 120.866 131.75 121.009C131.607 121.152 131.527 121.345 131.527 121.547V139.814C131.527 140.016 131.607 140.209 131.75 140.352C131.893 140.495 132.086 140.575 132.288 140.575Z" fill="#CCCCCC"/>
<path d="M170.353 148.567C170.555 148.567 170.749 148.486 170.892 148.344C171.035 148.201 171.115 148.007 171.115 147.805V129.539C171.115 129.337 171.035 129.143 170.892 129.001C170.749 128.858 170.555 128.778 170.353 128.778C170.152 128.778 169.958 128.858 169.815 129.001C169.672 129.143 169.592 129.337 169.592 129.539V147.805C169.592 148.007 169.672 148.201 169.815 148.344C169.958 148.486 170.152 148.567 170.353 148.567Z" fill="#CCCCCC"/>
<path d="M104.12 150.469C104.322 150.469 104.516 150.389 104.658 150.247C104.801 150.104 104.881 149.91 104.881 149.708V131.442C104.881 131.24 104.801 131.046 104.658 130.903C104.516 130.761 104.322 130.681 104.12 130.681C103.918 130.681 103.725 130.761 103.582 130.903C103.439 131.046 103.359 131.24 103.359 131.442V149.708C103.359 149.91 103.439 150.104 103.582 150.247C103.725 150.389 103.918 150.469 104.12 150.469Z" fill="#CCCCCC"/>
<path d="M105.643 207.553C105.845 207.553 106.038 207.473 106.181 207.33C106.324 207.187 106.404 206.994 106.404 206.792V184.719C106.404 184.518 106.324 184.324 106.181 184.181C106.038 184.038 105.845 183.958 105.643 183.958C105.441 183.958 105.247 184.038 105.104 184.181C104.962 184.324 104.881 184.518 104.881 184.719V206.792C104.881 206.994 104.962 207.187 105.104 207.33C105.247 207.473 105.441 207.553 105.643 207.553Z" fill="#CCCCCC"/>
<path d="M120.869 226.961C121.071 226.961 121.264 226.881 121.407 226.738C121.55 226.595 121.63 226.402 121.63 226.2V193.472C121.63 193.27 121.55 193.077 121.407 192.934C121.264 192.791 121.071 192.711 120.869 192.711C120.667 192.711 120.473 192.791 120.331 192.934C120.188 193.077 120.108 193.27 120.108 193.472V226.2C120.108 226.402 120.188 226.595 120.331 226.738C120.473 226.881 120.667 226.961 120.869 226.961Z" fill="#CCCCCC"/>
<path d="M117.824 171.019C118.026 171.019 118.219 170.939 118.362 170.796C118.505 170.654 118.585 170.46 118.585 170.258V125.353C118.585 125.151 118.505 124.957 118.362 124.815C118.219 124.672 118.026 124.592 117.824 124.592C117.622 124.592 117.428 124.672 117.285 124.815C117.143 124.957 117.062 125.151 117.062 125.353V170.258C117.062 170.46 117.143 170.654 117.285 170.796C117.428 170.939 117.622 171.019 117.824 171.019Z" fill="#CCCCCC"/>
<path d="M24.4904 266.576C23.4008 265.664 24.8734 262.111 27.7795 258.641C30.6857 255.171 33.9249 253.097 35.0146 254.009C36.1042 254.921 34.6316 258.474 31.7255 261.944C28.8193 265.414 25.5801 267.488 24.4904 266.576Z" fill="#2F2E41"/>
<path d="M31.6367 262.63C28.7736 254.042 33.4156 244.761 42.0049 241.898C50.5943 239.036 59.8783 243.677 62.7414 252.264C65.6045 260.851 60.9625 270.133 52.3732 272.995C43.7838 275.858 34.4998 271.217 31.6367 262.63Z" fill="#2F2E41"/>
<path d="M40.2501 270.309H45.2305V279.23H40.2501V270.309Z" fill="#2F2E41"/>
<path d="M50.211 270.309H55.1914V279.23H50.211V270.309Z" fill="#2F2E41"/>
<path d="M44.4005 280.89C42.1083 280.89 40.2502 280.193 40.2502 279.334C40.2502 278.475 42.1083 277.778 44.4005 277.778C46.6926 277.778 48.5508 278.475 48.5508 279.334C48.5508 280.193 46.6926 280.89 44.4005 280.89Z" fill="#2F2E41"/>
<path d="M54.3612 280.683C52.0691 280.683 50.2109 279.986 50.2109 279.127C50.2109 278.267 52.0691 277.571 54.3612 277.571C56.6533 277.571 58.5115 278.267 58.5115 279.127C58.5115 279.986 56.6533 280.683 54.3612 280.683Z" fill="#2F2E41"/>
<path d="M52.3365 236.845C50.8727 230.951 44.4111 227.483 37.9042 229.098C31.3973 230.713 27.3091 236.801 28.7729 242.694C30.2367 248.588 35.0932 248.607 41.6001 246.992C48.107 245.376 53.8004 242.738 52.3365 236.845Z" fill="#CCCCCC"/>
<path d="M58.2478 253.354C57.6388 252.07 60.4609 249.457 64.5511 247.518C68.6414 245.578 72.4509 245.047 73.0599 246.33C73.6689 247.614 70.8468 250.227 66.7565 252.166C62.6663 254.106 58.8568 254.637 58.2478 253.354Z" fill="#2F2E41"/>
<path d="M49.6398 259.453C46.6213 259.453 44.1742 257.006 44.1742 253.988C44.1742 250.971 46.6213 248.524 49.6398 248.524C52.6584 248.524 55.1055 250.971 55.1055 253.988C55.1055 257.006 52.6584 259.453 49.6398 259.453Z" fill="white"/>
<path d="M51.8861 253.851C50.88 253.851 50.0643 253.036 50.0643 252.03C50.0643 251.024 50.88 250.208 51.8861 250.208C52.8923 250.208 53.708 251.024 53.708 252.03C53.708 253.036 52.8923 253.851 51.8861 253.851Z" fill="#3F3D56"/>
<path d="M49.687 267.681C48.4257 267.681 47.4031 266.658 47.4031 265.397C47.4031 264.136 48.4257 263.114 49.687 263.114C50.9484 263.114 51.9709 264.136 51.9709 265.397C51.9709 266.658 50.9484 267.681 49.687 267.681Z" fill="white"/>
<path d="M0.380623 281H90.2143C90.3153 281 90.4121 280.96 90.4835 280.889C90.5549 280.817 90.595 280.72 90.595 280.619C90.595 280.519 90.5549 280.422 90.4835 280.35C90.4121 280.279 90.3153 280.239 90.2143 280.239H0.380623C0.279663 280.239 0.182854 280.279 0.111465 280.35C0.0400772 280.422 -3.05176e-05 280.519 -3.05176e-05 280.619C-3.05176e-05 280.72 0.0400772 280.817 0.111465 280.889C0.182854 280.96 0.279663 281 0.380623 281Z" fill="#3F3D56"/>
</g>
<defs>
<clipPath id="clip0">
<rect width="256" height="281" fill="white" transform="matrix(-1 0 0 1 256 0)"/>
</clipPath>
</defs>
</svg>
