<svg width="20" height="20" viewBox="0 0 20 20" fill="none" xmlns="http://www.w3.org/2000/svg">
<path d="M9.99997 0.579956C5.61613 0.579956 1.70509 3.73092 0.788054 8.02164C0.329894 10.1656 0.638534 12.4453 1.66069 14.3852C2.64445 16.2522 4.25725 17.7611 6.18685 18.6162C8.19397 19.5059 10.4982 19.6609 12.6078 19.0542C14.643 18.4691 16.4476 17.1848 17.6761 15.4609C20.2449 11.8568 19.9014 6.79428 16.8793 3.56484C15.1081 1.6722 12.5925 0.579956 9.99997 0.579956ZM14.5189 10.5032L11.9509 13.1332C11.3008 13.7992 10.2731 12.7902 10.9206 12.1273L12.2164 10.8004H6.07573C5.63965 10.8004 5.27581 10.4363 5.27581 10.0004C5.27581 9.5646 5.63989 9.20052 6.07573 9.20052H12.1857L10.8642 7.87932C10.2076 7.22268 11.2257 6.20436 11.8823 6.861L14.5129 9.4914C14.7918 9.77004 14.7945 10.2212 14.5189 10.5032Z" fill="#1E88E5"/>
</svg>
