<svg width="20" height="20" viewBox="0 0 20 20" fill="none" xmlns="http://www.w3.org/2000/svg">
<path d="M10 0.579956C14.3839 0.579956 18.2949 3.73092 19.2119 8.02164C19.6701 10.1656 19.3615 12.4453 18.3393 14.3852C17.3555 16.2522 15.7427 17.7611 13.8131 18.6162C11.806 19.5059 9.50179 19.6609 7.39219 19.0542C5.35699 18.4691 3.55243 17.1848 2.32387 15.4609C-0.244852 11.8568 0.098587 6.79428 3.12067 3.56484C4.89187 1.6722 7.40755 0.579956 10 0.579956ZM5.48107 10.5032L8.04907 13.1332C8.69923 13.7992 9.72691 12.7902 9.07939 12.1273L7.78363 10.8004H13.9243C14.3603 10.8004 14.7242 10.4363 14.7242 10.0004C14.7242 9.5646 14.3601 9.20052 13.9243 9.20052H7.81435L9.13579 7.87932C9.79243 7.22268 8.77435 6.20436 8.11771 6.861L5.48707 9.4914C5.20819 9.77004 5.20555 10.2212 5.48107 10.5032Z" fill="#1E88E5"/>
</svg>
