<svg width="32" height="28" viewBox="0 0 32 28" fill="none" xmlns="http://www.w3.org/2000/svg">
<path d="M21.1608 16.1595C21.1608 19.0053 18.8458 21.3203 16 21.3203C13.1542 21.3203 10.8401 19.0053 10.8401 16.1595C10.8401 13.3137 13.1542 10.9986 16 10.9986C18.8458 10.9986 21.1608 13.3145 21.1608 16.1595ZM32 8.83132V23.4894C32 25.4435 30.4157 27.0278 28.4615 27.0278H3.53845C1.58434 27.0278 0 25.4435 0 23.4894V8.83132C0 6.87721 1.58434 5.29286 3.53845 5.29286H7.89075V4.06856C7.89075 2.3586 9.27606 0.972412 10.9869 0.972412H21.0131C22.7239 0.972412 24.1092 2.3586 24.1092 4.06856V5.29198H28.4615C30.4157 5.29286 32 6.87721 32 8.83132ZM23.8147 16.1595C23.8147 11.8505 20.309 8.34478 16 8.34478C11.6919 8.34478 8.18621 11.8505 8.18621 16.1595C8.18621 20.4684 11.6919 23.9741 16 23.9741C20.309 23.9741 23.8147 20.4684 23.8147 16.1595Z" fill="white"/>
</svg>
