<svg width="10" height="10" viewBox="0 0 10 10" fill="none" xmlns="http://www.w3.org/2000/svg">
<path d="M8.57128 9.28671C8.38848 9.28671 8.20568 9.21698 8.06622 9.07736L0.923424 1.93457C0.644341 1.65548 0.644341 1.20352 0.923424 0.924587C1.20235 0.645657 1.65447 0.645504 1.9334 0.924587L9.07619 8.06738C9.35528 8.34646 9.35528 8.79843 9.07619 9.07736C8.93673 9.21698 8.75408 9.28671 8.57128 9.28671Z" fill="#939598"/>
<path d="M1.42834 9.28677C1.24554 9.28677 1.06289 9.21703 0.923424 9.07742C0.644341 8.79848 0.644341 8.34637 0.923424 8.06744L8.06622 0.924644C8.3453 0.645561 8.79726 0.645561 9.07619 0.924644C9.35513 1.20358 9.35528 1.65569 9.07619 1.93462L1.9334 9.07742C1.79394 9.21703 1.61114 9.28677 1.42834 9.28677Z" fill="#939598"/>
</svg>
