<svg width="22" height="22" viewBox="0 0 22 22" fill="none" xmlns="http://www.w3.org/2000/svg">
<path d="M21.5517 9.48751C21.1674 6.68674 19.6863 4.15332 17.4341 2.4446C15.1819 0.735871 12.3432 -0.00819811 9.54245 0.376076C6.74167 0.76035 4.20826 2.24149 2.49953 4.49366C0.790803 6.74583 0.0467335 9.58455 0.431007 12.3853C0.747599 14.7035 1.81288 16.8547 3.46471 18.5116C5.11655 20.1685 7.26449 21.2404 9.58164 21.5641C10.0558 21.6262 10.5334 21.6575 11.0116 21.6576C12.9436 21.6608 14.8394 21.1336 16.4924 20.1335C16.6084 20.0636 16.7095 19.9715 16.79 19.8626C16.8704 19.7536 16.9286 19.6299 16.9612 19.4984C16.9938 19.367 17.0003 19.2304 16.9801 19.0965C16.9599 18.9625 16.9136 18.8339 16.8437 18.7179C16.7738 18.6019 16.6818 18.5008 16.5728 18.4203C16.4639 18.3399 16.3401 18.2817 16.2087 18.2491C15.9432 18.1832 15.6624 18.2254 15.4281 18.3666C14.2516 19.0728 12.923 19.487 11.5536 19.5745C10.1842 19.662 8.81368 19.4203 7.5568 18.8697C6.29991 18.319 5.19317 17.4753 4.32915 16.4093C3.46513 15.3432 2.86895 14.0858 2.59049 12.7421C2.31204 11.3984 2.3594 10.0076 2.72861 8.686C3.09782 7.36438 3.77815 6.15039 4.71268 5.14558C5.64722 4.14077 6.80878 3.37436 8.10022 2.91046C9.39165 2.44656 10.7754 2.29866 12.1357 2.47914C13.3992 2.64713 14.6095 3.09408 15.6789 3.78761C16.7484 4.48114 17.6501 5.40387 18.3189 6.48896C18.9877 7.57404 19.4067 8.7943 19.5456 10.0613C19.6845 11.3284 19.5399 12.6104 19.1221 13.8146C19.0137 14.1042 18.8178 14.3529 18.5617 14.5261C18.3056 14.6993 18.0019 14.7885 17.6928 14.7813C17.2854 14.7807 16.8949 14.6187 16.6069 14.3306C16.3188 14.0426 16.1567 13.6521 16.1562 13.2447V6.87501C16.1562 6.60151 16.0476 6.33921 15.8542 6.14581C15.6608 5.95241 15.3985 5.84376 15.125 5.84376C14.8514 5.84376 14.5891 5.95241 14.3957 6.14581C14.2023 6.33921 14.0937 6.60151 14.0937 6.87501V6.88464C13.3119 6.29459 12.3782 5.93941 11.4019 5.86067C10.4256 5.78194 9.44712 5.9829 8.58088 6.44005C7.71464 6.89719 6.99652 7.59161 6.51057 8.44202C6.02462 9.29243 5.79094 10.2637 5.83687 11.2421C5.88281 12.2204 6.20646 13.1655 6.76995 13.9667C7.33344 14.7678 8.11346 15.3919 9.01872 15.7658C9.92398 16.1398 10.917 16.2482 11.8817 16.0784C12.8463 15.9085 13.7426 15.4674 14.4656 14.8067C14.7578 15.4152 15.2155 15.929 15.7862 16.2893C16.357 16.6496 17.0178 16.8418 17.6928 16.8438C18.4306 16.8509 19.1524 16.628 19.7578 16.2062C20.3632 15.7843 20.8223 15.1844 21.0711 14.4898C21.6269 12.8843 21.7917 11.1694 21.5517 9.48751ZM10.9999 14.0938C10.3881 14.0938 9.78992 13.9123 9.28115 13.5724C8.77239 13.2324 8.37585 12.7492 8.14169 12.1839C7.90754 11.6186 7.84627 10.9966 7.96564 10.3965C8.08502 9.79632 8.37967 9.24507 8.81234 8.8124C9.245 8.37973 9.79626 8.08508 10.3964 7.96571C10.9965 7.84634 11.6186 7.9076 12.1839 8.14176C12.7492 8.37592 13.2324 8.77245 13.5723 9.28122C13.9123 9.78998 14.0937 10.3881 14.0937 11C14.0928 11.8202 13.7666 12.6066 13.1866 13.1866C12.6066 13.7666 11.8202 14.0929 10.9999 14.0938Z" fill="#171818"/>
</svg>
