<svg width="22" height="22" viewBox="0 0 22 22" fill="none" xmlns="http://www.w3.org/2000/svg">
<path d="M11 0.458252C4.9225 0.458252 0 5.29825 0 11.2676C0 16.0443 3.1515 20.0951 7.52125 21.5233C8.07125 21.625 8.27291 21.2904 8.27291 21.0035C8.27291 20.7468 8.26375 20.0667 8.25916 19.1656C5.19933 19.8173 4.554 17.7154 4.554 17.7154C4.0535 16.4678 3.33025 16.1342 3.33025 16.1342C2.33383 15.4641 3.40725 15.4778 3.40725 15.4778C4.51183 15.553 5.09208 16.5916 5.09208 16.5916C6.07292 18.2443 7.667 17.7668 8.29583 17.4908C8.39483 16.7914 8.67808 16.3157 8.9925 16.0453C6.54958 15.7748 3.982 14.8453 3.982 10.7038C3.982 9.52409 4.40825 8.55975 5.11408 7.8035C4.99033 7.53033 4.61908 6.43125 5.21033 4.94259C5.21033 4.94259 6.13158 4.65292 8.23533 6.05084C9.11533 5.81067 10.0503 5.6915 10.9853 5.686C11.9203 5.6915 12.8553 5.81067 13.7353 6.05084C15.8253 4.65292 16.7466 4.94259 16.7466 4.94259C17.3378 6.43125 16.9666 7.53033 16.8566 7.8035C17.5578 8.55975 17.9841 9.52409 17.9841 10.7038C17.9841 14.8563 15.4128 15.7703 12.9653 16.0361C13.3503 16.3606 13.7078 17.0233 13.7078 18.0363C13.7078 19.4828 13.6941 20.6451 13.6941 20.9962C13.6941 21.2794 13.8866 21.6177 14.4503 21.5095C18.8512 20.0905 22 16.037 22 11.2676C22 5.29825 17.0747 0.458252 11 0.458252Z" fill="#171818"/>
</svg>
