<svg width="16" height="22" viewBox="0 0 16 22" fill="none" xmlns="http://www.w3.org/2000/svg">
<path d="M11.2997 2.62101L9.36439 5.45957C9.52062 5.7078 9.61133 6.00145 9.61133 6.31641C9.61133 7.20633 8.88993 7.92774 8 7.92774C7.11007 7.92774 6.38867 7.20633 6.38867 6.31641C6.38867 5.42648 7.11007 4.70508 8 4.70508C8.10235 4.70508 8.20234 4.71505 8.29936 4.73327L10.0831 2.11712C9.42416 1.91422 8.72463 1.80469 8 1.80469C7.27537 1.80469 6.57589 1.91422 5.91692 2.11712L4.66532 0.28149C4.46479 -0.0125879 4.06389 -0.0884707 3.76968 0.112064C3.47556 0.3126 3.39972 0.713584 3.60026 1.0077L4.70026 2.62101C2.44852 3.81017 0.910156 6.17586 0.910156 8.89453V14.9102C0.910156 18.8195 4.09066 22 8 22C11.9093 22 15.0898 18.8195 15.0898 14.9102V8.89453C15.0898 6.1759 13.5515 3.81017 11.2997 2.62101ZM11.0078 17.0586H4.99219C4.63623 17.0586 4.34766 16.77 4.34766 16.4141C4.34766 16.0581 4.63623 15.7695 4.99219 15.7695H11.0078C11.3638 15.7695 11.6523 16.0581 11.6523 16.4141C11.6523 16.77 11.3638 17.0586 11.0078 17.0586ZM11.0078 14.4805H4.99219C4.63623 14.4805 4.34766 14.1919 4.34766 13.8359C4.34766 13.48 4.63623 13.1914 4.99219 13.1914H11.0078C11.3638 13.1914 11.6523 13.48 11.6523 13.8359C11.6523 14.1919 11.3638 14.4805 11.0078 14.4805ZM11.0078 11.9023H4.99219C4.63623 11.9023 4.34766 11.6138 4.34766 11.2578C4.34766 10.9019 4.63623 10.6133 4.99219 10.6133H11.0078C11.3638 10.6133 11.6523 10.9019 11.6523 11.2578C11.6523 11.6138 11.3638 11.9023 11.0078 11.9023Z" fill="#171818"/>
<path d="M12.3994 1.00771C12.5999 0.713584 12.524 0.3126 12.23 0.112064C11.9358 -0.0884708 11.5348 -0.0125879 11.3343 0.28149L10.0828 2.11712C10.5066 2.24765 10.9134 2.41712 11.2994 2.62097L12.3994 1.00771Z" fill="#171818"/>
</svg>
