<svg width="18" height="18" viewBox="0 0 18 18" fill="none" xmlns="http://www.w3.org/2000/svg">
<path d="M9.00008 0.666626C4.40008 0.666626 0.666748 4.39996 0.666748 8.99996C0.666748 13.6 4.40008 17.3333 9.00008 17.3333C13.6001 17.3333 17.3334 13.6 17.3334 8.99996C17.3334 4.39996 13.6001 0.666626 9.00008 0.666626ZM9.00008 3.16663C10.3834 3.16663 11.5001 4.28329 11.5001 5.66663C11.5001 7.04996 10.3834 8.16663 9.00008 8.16663C7.61675 8.16663 6.50008 7.04996 6.50008 5.66663C6.50008 4.28329 7.61675 3.16663 9.00008 3.16663ZM9.00008 15C6.91675 15 5.07508 13.9333 4.00008 12.3166C4.02508 10.6583 7.33342 9.74996 9.00008 9.74996C10.6584 9.74996 13.9751 10.6583 14.0001 12.3166C12.9251 13.9333 11.0834 15 9.00008 15Z" fill="#1E88E5"/>
</svg>
