<svg width="18" height="18" viewBox="0 0 18 18" fill="none" xmlns="http://www.w3.org/2000/svg">
<path d="M9.00044 0C4.03153 0 0.000427246 4.02602 0.000427246 8.99527C0.000427246 13.9693 4.03153 18 9.0004 18C13.972 18 17.9997 13.9692 17.9997 8.99527C17.9997 4.02602 13.972 0 9.00044 0ZM9.64178 14.0031C9.43275 14.1891 9.1905 14.2826 8.91608 14.2826C8.63215 14.2826 8.38448 14.1908 8.17308 14.0068C7.96134 13.8232 7.85527 13.5661 7.85527 13.2357C7.85527 12.9426 7.95792 12.696 8.16258 12.4961C8.36723 12.2962 8.61827 12.1962 8.91608 12.1962C9.20914 12.1962 9.4558 12.2962 9.65603 12.4961C9.85593 12.696 9.95622 12.9426 9.95622 13.2357C9.95584 13.5613 9.85114 13.8171 9.64178 14.0031ZM12.2482 7.54145C12.0876 7.83926 11.8969 8.09605 11.6756 8.31258C11.4551 8.52907 11.0583 8.89294 10.4857 9.40453C10.3278 9.54887 10.2008 9.67558 10.1056 9.78466C10.0104 9.89411 9.93925 9.99402 9.89282 10.0848C9.84606 10.1756 9.81017 10.2664 9.78474 10.3572C9.75932 10.4477 9.72106 10.6073 9.66921 10.8353C9.58113 11.3191 9.30433 11.561 8.83914 11.561C8.59722 11.561 8.39395 11.482 8.22826 11.3238C8.06325 11.1656 7.98093 10.9308 7.98093 10.6191C7.98093 10.2285 8.04158 9.88999 8.16253 9.60372C8.28282 9.31742 8.44375 9.06638 8.64365 8.84989C8.84389 8.6334 9.11356 8.37656 9.45338 8.07875C9.75119 7.81821 9.96635 7.62172 10.0988 7.48922C10.2316 7.35643 10.3431 7.20871 10.4335 7.04607C10.5247 6.8831 10.5694 6.70658 10.5694 6.51585C10.5694 6.14352 10.4315 5.82979 10.1544 5.574C9.87761 5.3182 9.52049 5.19012 9.08309 5.19012C8.57117 5.19012 8.19442 5.3192 7.95251 5.57737C7.71059 5.83554 7.50632 6.21567 7.33859 6.71813C7.18004 7.24397 6.87986 7.50685 6.43837 7.50685C6.17783 7.50685 5.95796 7.41503 5.77874 7.23139C5.59984 7.04774 5.5104 6.84888 5.5104 6.63477C5.5104 6.19295 5.65236 5.74505 5.93596 5.2914C6.21988 4.83775 6.6339 4.462 7.17833 4.16452C7.72243 3.86671 8.35773 3.71762 9.08309 3.71762C9.75765 3.71762 10.3529 3.84229 10.8693 4.09133C11.3856 4.34 11.7847 4.67849 12.0663 5.10671C12.3475 5.53461 12.4884 5.99981 12.4884 6.50227C12.4891 6.89702 12.4088 7.24364 12.2482 7.54145Z" fill="#1E88E5"/>
</svg>
