<svg width="16" height="14" viewBox="0 0 16 14" fill="none" xmlns="http://www.w3.org/2000/svg">
<path d="M6.66667 3.66808V0.833416C6.66667 0.63275 6.546 0.451416 6.36133 0.37275C6.17733 0.29475 5.962 0.334083 5.81867 0.47475L0.152 5.97475C0.0546667 6.06875 0 6.19808 0 6.33342C0 6.46875 0.0546667 6.59808 0.152 6.69208L5.81867 12.1921C5.96333 12.3321 6.178 12.3714 6.36133 12.2941C6.546 12.2154 6.66667 12.0341 6.66667 11.8334V9.00008H7.612C10.7027 9.00008 13.552 10.6801 15.0473 13.3814L15.0613 13.4067C15.1507 13.5694 15.32 13.6667 15.5 13.6667C15.5413 13.6667 15.5827 13.6621 15.624 13.6514C15.8453 13.5947 16 13.3954 16 13.1667C16 7.98408 11.8287 3.75742 6.66667 3.66808Z" fill="#1E88E5"/>
</svg>
