<svg width="18" height="18" viewBox="0 0 18 18" fill="none" xmlns="http://www.w3.org/2000/svg">
<path d="M7.92682 0C3.55609 0 0 3.55609 0 7.92682C0 12.2978 3.55609 15.8536 7.92682 15.8536C12.2978 15.8536 15.8536 12.2978 15.8536 7.92682C15.8536 3.55609 12.2978 0 7.92682 0ZM7.92682 14.3903C4.36293 14.3903 1.46341 11.4908 1.46341 7.92686C1.46341 4.36296 4.36293 1.46341 7.92682 1.46341C11.4907 1.46341 14.3902 4.36293 14.3902 7.92682C14.3902 11.4907 11.4907 14.3903 7.92682 14.3903Z" fill="#939598"/>
<path d="M17.7851 16.7505L13.5899 12.5553C13.304 12.2695 12.8411 12.2695 12.5552 12.5553C12.2694 12.8409 12.2694 13.3044 12.5552 13.59L16.7504 17.7852C16.8934 17.9281 17.0805 17.9996 17.2678 17.9996C17.4549 17.9996 17.6422 17.9281 17.7851 17.7852C18.071 17.4996 18.071 17.0361 17.7851 16.7505Z" fill="#939598"/>
</svg>
