<svg width="100" height="100" viewBox="0 0 100 100" fill="none" xmlns="http://www.w3.org/2000/svg">
<path d="M50 100C22.4305 100 0 77.5695 0 50C0 22.4305 22.4305 0 50 0C77.5695 0 100 22.4305 100 50C100 77.5695 77.5695 100 50 100ZM50 6.25C25.8758 6.25 6.25 25.8758 6.25 50C6.25 74.1242 25.8758 93.75 50 93.75C74.1242 93.75 93.75 74.1242 93.75 50C93.75 25.8758 74.1242 6.25 50 6.25ZM42.8344 67.8344L74.0844 36.5844C75.3055 35.3633 75.3055 33.3859 74.0844 32.1656C72.8633 30.9453 70.8859 30.9445 69.6656 32.1656L40.625 61.2063L30.3344 50.9156C29.1133 49.6945 27.1359 49.6945 25.9156 50.9156C24.6953 52.1367 24.6945 54.1141 25.9156 55.3344L38.4156 67.8344C39.0258 68.4445 39.8258 68.75 40.625 68.75C41.4242 68.75 42.2242 68.4445 42.8344 67.8344Z" fill="#F15525"/>
</svg>
