<svg width="100" height="100" viewBox="0 0 100 100" fill="none" xmlns="http://www.w3.org/2000/svg">
<path d="M85.3535 14.6465C75.9049 5.19781 63.3628 0 50 0C36.6372 0 24.0951 5.19781 14.6465 14.6465C5.19781 24.0951 0 36.6372 0 50C0 63.3628 5.19781 75.9049 14.6465 85.3535C24.0951 94.8022 36.6372 100 50 100C63.3628 100 75.9049 94.8022 85.3535 85.3535C94.8022 75.9049 100 63.3628 100 50C100 36.6372 94.8022 24.0951 85.3535 14.6465ZM81.3342 81.3342C72.9587 89.7096 61.8266 94.3182 50 94.3182C38.1734 94.3182 27.0412 89.7096 18.6658 81.3342C1.38889 64.0572 1.38889 35.9428 18.6658 18.6658C27.0412 10.2904 38.1734 5.68182 50 5.68182C61.8266 5.68182 72.9587 10.2904 81.3342 18.6658C98.6111 35.9428 98.6111 64.0572 81.3342 81.3342Z" fill="#FF6060"/>
<path d="M72.033 27.9673C70.9177 26.852 69.129 26.852 68.0137 27.9673L50.0002 45.9808L31.9867 27.9673C30.8714 26.852 29.0827 26.852 27.9673 27.9673C26.852 29.0827 26.852 30.8714 27.9673 31.9867L45.9808 50.0002L27.9673 68.0136C26.852 69.129 26.852 70.9177 27.9673 72.033C28.5145 72.5801 29.251 72.8748 29.9665 72.8748C30.682 72.8748 31.4185 72.6012 31.9657 72.033L49.9791 54.0195L67.9926 72.033C68.5398 72.5801 69.2763 72.8748 69.9918 72.8748C70.7283 72.8748 71.4438 72.6012 71.9909 72.033C73.1063 70.9177 73.1063 69.129 71.9909 68.0136L54.0196 50.0002L72.033 31.9867C73.1483 30.8714 73.1483 29.0827 72.033 27.9673Z" fill="#FF6060"/>
</svg>
