<svg width="100" height="100" fill="none" xmlns="http://www.w3.org/2000/svg"><g clip-path="url(#clip0)" fill="#F15525"><path d="M50.972 17.025c-.88-.313-1.88-.292-2.348.346l-9.913 13.35a1.457 1.457 0 00-.132.22c-.27.762.663 1.684 1.497 1.98.524.185.987.162 1.267-.248l2.03-2.846 5.453 1.935-.22 3.49c-.04.494.305.804.829.99.833.296 2.147.145 2.41-.593.025-.072.026-.151.036-.255l.72-16.611c.04-.79-.724-1.437-1.629-1.758zm-1.95 12.071l-4.145-1.47 4.667-6.576-.523 8.046zM33.09 78.13l-.135-.513c-.642-2.445-1.919-3.128-3.563-3.323 1.147-.902 1.583-2.427 1.056-4.432-.911-3.47-3.5-3.679-6.042-3.011l-4.718 1.239c-.708.186-1.303.708-1.13 1.368l4.173 15.887c.135.513.795.836 1.65.612l5.182-1.361c2.762-.726 4.529-2.653 3.527-6.466zm-9.819-3.561l-1.091-4.155 2.713-.713c1.246-.327 2.185.263 2.519 1.534.327 1.246-.083 2.269-1.403 2.615l-2.738.719zm4.9 7.413l-2.762.726-1.482-5.646 2.761-.725c1.491-.392 2.55.061 3.051 1.968l.103.39c.488 1.858-.18 2.896-1.671 3.288zM80.96 77.09c-.859 0-1.566.252-1.617 1.036-.076 1.06-.278 2.703-2.578 2.703-1.743 0-2.704-.935-2.704-2.906v-7.05c0-1.971.961-2.906 2.654-2.906 2.4 0 2.578 1.718 2.628 2.502.025.758.708 1.036 1.643 1.036 1.112 0 1.642-.304 1.642-1.618 0-2.931-2.501-4.801-6.014-4.801-3.184 0-5.838 1.567-5.838 5.787v7.05c0 4.22 2.629 5.787 5.813 5.787 3.538 0 6.04-1.945 6.04-5.003 0-1.289-.531-1.617-1.669-1.617z"/><path d="M65.148 7.11L42.156.433c-5.758-1.674-11.803 1.651-13.475 7.41l-2.167 7.463a1.464 1.464 0 002.811.816l2.168-7.463a7.894 7.894 0 013.802-4.747 7.894 7.894 0 016.045-.668l22.992 6.678c4.207 1.222 6.636 5.639 5.414 9.847L63.07 42.76c-1.222 4.207-5.64 6.636-9.847 5.414L30.23 41.498a7.894 7.894 0 01-4.747-3.802 7.894 7.894 0 01-.668-6.045l2.58-8.886a1.464 1.464 0 00-2.81-.817l-2.581 8.886a10.8 10.8 0 00.914 8.272 10.803 10.803 0 006.495 5.203l22.992 6.678c1.01.293 2.027.433 3.029.433 4.713 0 9.067-3.094 10.447-7.843l6.677-22.992c1.672-5.758-1.652-11.802-7.41-13.475zM50.363 83.564L46.54 59.93a10.801 10.801 0 00-4.371-7.081 10.801 10.801 0 00-8.1-1.916l-23.634 3.822c-5.92.958-9.956 6.552-8.998 12.47l1.274 7.879a1.463 1.463 0 102.89-.467l-1.274-7.879c-.7-4.325 2.25-8.413 6.575-9.112l23.635-3.824a7.897 7.897 0 015.919 1.4 7.893 7.893 0 013.194 5.176l3.823 23.635c.7 4.325-2.25 8.413-6.575 9.113l-23.635 3.823a7.897 7.897 0 01-5.918-1.4 7.894 7.894 0 01-3.195-5.175l-1.457-9.01a1.463 1.463 0 10-2.89.468L5.26 90.86a10.802 10.802 0 004.372 7.082 10.794 10.794 0 008.099 1.916l23.635-3.823c5.919-.958 9.955-6.552 8.997-12.47zM87.83 51.728H63.888c-5.996 0-10.874 4.878-10.874 10.873v7.99a1.464 1.464 0 102.928 0V62.6c0-4.381 3.564-7.946 7.946-7.946H87.83c4.382 0 7.946 3.565 7.946 7.946v23.942c0 4.382-3.564 7.947-7.946 7.947H63.888c-4.382 0-7.946-3.565-7.946-7.947v-9.12a1.464 1.464 0 10-2.928 0v9.12c0 5.996 4.878 10.874 10.874 10.874H87.83c5.996 0 10.874-4.878 10.874-10.874V62.601c0-5.995-4.878-10.873-10.874-10.873z"/></g><defs><clipPath id="clip0"><path fill="#fff" d="M0 0h100v100H0z"/></clipPath></defs></svg>