<svg width="36" height="36" fill="none" xmlns="http://www.w3.org/2000/svg"><circle cx="18" cy="18" r="14" fill="#fff"/><path d="M18 0C8.059 0 0 8.059 0 18s8.059 18 18 18 18-8.059 18-18S27.941 0 18 0zm10.563 24.577l-3.105.043s-.668.132-1.544-.474c-1.163-.798-2.257-2.87-3.11-2.605-.852.265-.838 2.131-.838 2.131a1.03 1.03 0 01-.192.611c-.18.154-.4.25-.635.277h-1.376s-3.079.183-5.767-2.626c-2.956-3.05-5.559-9.145-5.559-9.145s-.153-.353.015-.592c.144-.206.501-.228.682-.236.777-.037 3.112-.022 3.112-.022.195-.005.326.006.568.111a.922.922 0 01.467.503c.36.894.776 1.764 1.248 2.605 1.388 2.4 2.034 2.923 2.506 2.667.684-.374.473-3.39.473-3.39s0-1.096-.345-1.582a1.56 1.56 0 00-1.026-.537c-.187-.026.121-.46.519-.654.597-.294 1.653-.294 2.899-.294a5.908 5.908 0 011.63.166c1.146.277.757 1.343.757 3.906 0 .82-.149 1.975.443 2.368.256.163.876.024 2.435-2.62.497-.874.928-1.784 1.29-2.723a.992.992 0 01.309-.377.802.802 0 01.452-.078l3.496-.024s1.049-.125 1.22.351c.17.476-.394 1.658-1.822 3.553-2.345 3.126-2.605 2.842-.658 4.64 1.859 1.726 2.245 2.567 2.309 2.67.772 1.275-.853 1.377-.853 1.377z" fill="#4C75A3"/></svg>