<svg width="44" height="44" fill="none" xmlns="http://www.w3.org/2000/svg"><path d="M22 .805c-9.863 0-18.663 7.09-20.727 16.744-1.03 4.823-.336 9.953 1.964 14.318a21.37 21.37 0 0010.184 9.52c4.516 2.001 9.7 2.35 14.447.985 4.58-1.317 8.64-4.206 11.404-8.085 5.78-8.11 5.007-19.5-1.793-26.766A21.313 21.313 0 0022 .805zm10.168 22.327L26.39 29.05c-1.463 1.498-3.775-.772-2.318-2.264l2.915-2.985H13.171c-.981 0-1.8-.82-1.8-1.8 0-.98.82-1.8 1.8-1.8h13.747l-2.973-2.973c-1.478-1.477.813-3.768 2.29-2.29l5.92 5.918c.627.627.633 1.642.013 2.276z" fill="#1E88E5"/></svg>