<svg width="44" height="44" fill="none" xmlns="http://www.w3.org/2000/svg"><path d="M22 .805c9.863 0 18.663 7.09 20.727 16.744 1.03 4.823.336 9.953-1.964 14.318a21.37 21.37 0 01-10.184 9.52c-4.516 2.001-9.7 2.35-14.447.985-4.58-1.317-8.64-4.206-11.404-8.085-5.78-8.11-5.006-19.5 1.793-26.766A21.313 21.313 0 0122 .805zM11.832 23.132l5.778 5.918c1.463 1.498 3.775-.772 2.318-2.264l-2.915-2.985h13.816c.982 0 1.8-.82 1.8-1.8 0-.98-.82-1.8-1.8-1.8H17.082l2.973-2.973c1.478-1.477-.813-3.768-2.29-2.29l-5.92 5.918a1.619 1.619 0 00-.013 2.276z" fill="#1E88E5"/></svg>