<svg width="100" height="100" fill="none" xmlns="http://www.w3.org/2000/svg"><g clip-path="url(#clip0)" fill="#F15525"><path d="M86.827 37.332H40.343a1.465 1.465 0 100 2.93h46.484a1.465 1.465 0 000-2.93zm0 11.198H40.343a1.465 1.465 0 000 2.93h46.484a1.465 1.465 0 100-2.93zm0 11.198H40.343a1.465 1.465 0 000 2.93h46.484a1.465 1.465 0 000-2.93z"/><path d="M91.48 24.521H35.69c-4.698 0-8.52 3.822-8.52 8.52v35.082c0 4.697 3.822 8.52 8.52 8.52h39.104c.418 0 .806.188 1.066.516l12.628 15.987a2.517 2.517 0 002.836.828 2.519 2.519 0 001.713-2.408V76.497c3.95-.738 6.963-4.23 6.963-8.374V33.04c0-4.698-3.822-8.52-8.52-8.52zm5.59 43.602c0 3.042-2.475 5.549-5.517 5.587a1.465 1.465 0 00-1.446 1.465V90.47L78.159 75.343a4.264 4.264 0 00-3.365-1.63H35.69a5.597 5.597 0 01-5.59-5.59V33.04a5.597 5.597 0 015.59-5.59h55.79a5.597 5.597 0 015.59 5.59v35.082z"/><path d="M21.58 48.742a3.906 3.906 0 00-2.526 1.453L8.992 62.933V50.166c0-.801-.645-1.454-1.446-1.465C5 48.67 2.93 46.571 2.93 44.027v-30.54a4.682 4.682 0 014.676-4.676h48.567a4.682 4.682 0 014.677 4.676v5.651a1.465 1.465 0 002.93 0v-5.65c0-4.195-3.412-7.607-7.607-7.607H7.606C3.412 5.88 0 9.293 0 13.487v30.54c0 3.645 2.612 6.726 6.062 7.446v12.962A2.38 2.38 0 007.68 66.71a2.379 2.379 0 002.68-.782L21.354 52.01a.988.988 0 01.64-.368 1.465 1.465 0 10-.412-2.9z"/></g><defs><clipPath id="clip0"><path fill="#fff" d="M0 0h100v100H0z"/></clipPath></defs></svg>