<svg width="100" height="100" fill="none" xmlns="http://www.w3.org/2000/svg"><path d="M21.799 47.056H34.78a4.15 4.15 0 004.146-4.147V28.555a4.15 4.15 0 00-4.146-4.146H21.799a4.15 4.15 0 00-4.146 4.146v14.354a4.15 4.15 0 004.146 4.147zm-1.021-18.501c0-.554.467-1.021 1.02-1.021h12.983c.554 0 1.02.467 1.02 1.02V42.91c0 .554-.466 1.022-1.02 1.022H21.799a1.035 1.035 0 01-1.021-1.022V28.555zm23.51-.305h17.395a1.562 1.562 0 100-3.126H44.288a1.562 1.562 0 100 3.125zm0 9.403h17.395a1.562 1.562 0 100-3.125H44.288a1.562 1.562 0 100 3.125z" fill="#F15525"/><path d="M97.907 88.942L88.672 77.13A2.49 2.49 0 0087 76.185c-.67-.082-1.326.1-1.853.513l-1.354 1.059-1.823-2.33c3.603-3.705 5.687-8.536 5.854-13.737a20.557 20.557 0 00-5.59-14.824c-3.159-3.367-7.191-5.418-11.42-6.178v-25.24a4.736 4.736 0 00-4.73-4.731h-3.31V7.691a4.736 4.736 0 00-4.73-4.73H6.292a4.736 4.736 0 00-4.73 4.73v67.143a4.736 4.736 0 004.73 4.73h3.31v3.031a4.733 4.733 0 004.73 4.725h51.75c2.608 0 4.73-2.12 4.73-4.725v-1.2a20.498 20.498 0 008.822-3.883l1.698 2.17-1.359 1.062a2.511 2.511 0 00-.432 3.52l9.241 11.814a2.511 2.511 0 003.519.429l5.171-4.046a2.51 2.51 0 00.434-3.519zM6.293 76.439c-.885 0-1.606-.72-1.606-1.605V7.69c0-.885.72-1.605 1.606-1.605h51.75c.885 0 1.605.72 1.605 1.605v3.026H14.333a4.736 4.736 0 00-4.73 4.73v60.992h-3.31zm61.395 6.156c0 .882-.72 1.6-1.605 1.6h-51.75a1.605 1.605 0 01-1.606-1.6V15.447c0-.885.72-1.605 1.606-1.605h51.75c.885 0 1.605.72 1.605 1.605V40.35a20.653 20.653 0 00-12.183 3.582H44.29a1.562 1.562 0 100 3.125h7.586a20.51 20.51 0 00-3.95 6.278h-28.71a1.562 1.562 0 100 3.125h27.753c-.461 2.06-.6 4.177-.427 6.278H19.216a1.562 1.562 0 100 3.125h27.82a20.571 20.571 0 002.649 6.278h-30.47a1.562 1.562 0 100 3.125h32.901a20.562 20.562 0 0014.355 6.451c.41.013.805-.004 1.217-.014v.893zm-1.117-4.002a17.46 17.46 0 01-12.256-5.544c-6.63-7.069-6.271-18.213.797-24.843a17.453 17.453 0 0112.587-4.746 17.46 17.46 0 0112.255 5.544c6.63 7.068 6.272 18.212-.797 24.842-3.423 3.212-7.871 4.89-12.586 4.747zm24.292 15.072l-8.478-10.84 4.203-3.287 8.476 10.841-4.201 3.285z" fill="#F15525"/><path d="M77.368 51.428c-5.293-5.64-14.186-5.924-19.825-.634-5.645 5.288-5.93 14.185-.64 19.831a13.992 13.992 0 0010.234 4.422c3.443 0 6.893-1.255 9.598-3.788 5.638-5.292 5.922-14.187.633-19.83zm-2.77 17.55c-4.39 4.115-11.303 3.893-15.415-.49-4.112-4.389-3.89-11.303.496-15.414h.002a10.859 10.859 0 017.453-2.946 10.88 10.88 0 017.955 3.437c4.11 4.387 3.89 11.302-.492 15.414z" fill="#F15525"/><path d="M75.47 59.162c-.976-4.48-5.418-7.326-9.898-6.35a1.563 1.563 0 00-1.195 1.86 1.568 1.568 0 001.86 1.193 5.195 5.195 0 016.181 3.964 1.56 1.56 0 001.859 1.193 1.562 1.562 0 001.193-1.86z" fill="#F15525"/></svg>