<svg width="18" height="18" fill="none" xmlns="http://www.w3.org/2000/svg"><path d="M9 0C4.032 0 0 4.026 0 8.995 0 13.97 4.032 18 9 18c4.972 0 9-4.03 9-9.005C18 4.026 13.972 0 9 0zm.642 14.003a1.06 1.06 0 01-.726.28c-.284 0-.532-.092-.743-.276-.212-.184-.318-.44-.318-.771 0-.293.103-.54.308-.74.204-.2.455-.3.753-.3.293 0 .54.1.74.3.2.2.3.447.3.74 0 .325-.105.581-.314.767zm2.606-6.462a3.18 3.18 0 01-.572.772c-.22.216-.618.58-1.19 1.092a4.94 4.94 0 00-.38.38 1.55 1.55 0 00-.213.3c-.047.09-.083.181-.108.272-.026.09-.064.25-.116.478-.088.484-.365.726-.83.726a.85.85 0 01-.61-.237c-.166-.158-.248-.393-.248-.705 0-.39.06-.729.182-1.015.12-.287.28-.538.48-.754.2-.217.47-.473.81-.771.298-.26.513-.457.646-.59.133-.133.244-.28.335-.443.09-.163.135-.34.135-.53a1.23 1.23 0 00-.415-.942c-.276-.256-.633-.384-1.07-.384-.513 0-.89.13-1.131.387-.242.259-.447.639-.614 1.141-.159.526-.46.789-.9.789a.886.886 0 01-.66-.276c-.18-.183-.269-.382-.269-.596 0-.442.142-.89.426-1.344.284-.453.698-.829 1.242-1.126.544-.298 1.18-.447 1.905-.447.675 0 1.27.124 1.786.373.517.249.916.587 1.197 1.016.281.428.422.893.422 1.395.001.395-.08.742-.24 1.04z" fill="#fff"/></svg>