<svg width="780" height="575" fill="none" xmlns="http://www.w3.org/2000/svg"><g clip-path="url(#clip0)"><path opacity=".1" d="M453.187 86.22c-50.003-1.736-97.631-17.916-143.106-35.604-45.475-17.688-90.528-37.29-139.33-46.667-31.393-6.03-67.294-6.867-92.585 9.978C53.82 30.149 45.958 58.18 41.734 84.146c-3.183 19.554-5.053 40.105 3.658 58.436 6.053 12.702 16.8 23.385 24.235 35.555 25.85 42.36 7.593 94.587-20.446 135.937-13.115 19.402-28.39 37.906-38.53 58.56-10.14 20.655-14.834 44.31-5.964 65.372 8.8 20.882 29.757 36.565 52.46 47.594 46.117 22.404 100.461 28.821 153.453 32.451 117.311 8.007 235.242 4.55 352.857 1.092 43.528-1.293 87.242-2.6 130.067-9.341 23.772-3.741 48.318-9.681 65.575-24.029 21.916-18.213 27.348-49.053 12.659-71.913-24.628-38.301-92.737-47.815-109.952-88.923-9.477-22.625.255-47.829 14.026-68.816 29.543-45.021 79.063-84.511 81.672-135.971 1.795-35.34-22.012-70.737-58.817-87.457-38.586-17.529-92.082-15.323-120.548 13.691-29.295 29.879-80.803 41.371-124.952 39.836z" fill="#1E88E5"/><path d="M458.46 522.676l-134.601-1.728.393-3.458 6.509-57.046h118.208l8.698 57.046.662 4.322.131.864z" fill="#D0D2D5"/><path opacity=".1" d="M458.329 521.812H391.16l-67.301-.864.393-3.458h133.415l.662 4.322z" fill="#000"/><path d="M480.031 518.355H301.425v4.321h178.606v-4.321z" fill="#D0D2D5"/><path d="M650.437 117.806a11.263 11.263 0 00-3.25-7.971 11.229 11.229 0 00-7.925-3.335H140.469a11.225 11.225 0 00-10.348 6.995 11.254 11.254 0 00-.834 4.311v302.865h521.15V117.806z" fill="#444053"/><path d="M129.287 417.663v35.472c0 2.971 1.178 5.82 3.275 7.921a11.17 11.17 0 007.907 3.281h498.793a11.174 11.174 0 007.902-3.283 11.212 11.212 0 003.273-7.919v-35.472h-521.15z" fill="#D0D2D5"/><path opacity=".1" d="M631.455 125.516H150.858v272.267h480.597V125.516z" fill="#1E88E5"/><path d="M392.45 450.874a11.65 11.65 0 009.167-4.453c.331-.424.633-.87.904-1.335l-6.391-1.051 6.902.056a11.667 11.667 0 00.221-9.252l-9.27 4.84 8.552-6.292a11.651 11.651 0 00-7.476-5.5 11.639 11.639 0 00-14.087 9.56 11.687 11.687 0 002.326 8.995 11.625 11.625 0 004.068 3.269 11.616 11.616 0 005.084 1.163z" fill="#1E88E5"/><path opacity=".1" d="M404.102 464.337l53.696 54.018-8.235-54.018h-45.461z" fill="#000"/><path d="M478.63 174.638H166.768c-.991 0-1.795.805-1.795 1.798v185.868c0 .992.804 1.797 1.795 1.797H478.63c.991 0 1.795-.805 1.795-1.797V176.436c0-.993-.804-1.798-1.795-1.798zm152.963-49.094H151.168v15.904h480.425v-15.904z" fill="#fff"/><path d="M166.506 128.31h-12.729a.538.538 0 00-.538.539v8.602c0 .298.241.539.538.539h12.729a.538.538 0 00.538-.539v-8.602a.538.538 0 00-.538-.539z" fill="#1E88E5"/><path opacity=".3" d="M462.078 128.31H317.922a.4.4 0 00-.4.401v8.878a.4.4 0 00.4.401h144.156a.4.4 0 00.4-.401v-8.878a.4.4 0 00-.4-.401z" fill="#1E88E5"/><path d="M458.178 134.146h-.353l-.131-.111a2.943 2.943 0 00.691-1.881 2.864 2.864 0 00-3.431-2.784 2.864 2.864 0 00.58 5.668 2.946 2.946 0 001.877-.692l.131.111v.359l2.209 2.213.691-.691-2.264-2.192zm-2.651 0a1.996 1.996 0 01-1.964-2.387 1.997 1.997 0 013.619-.718c.218.33.334.717.333 1.113.002.262-.048.522-.148.764a1.963 1.963 0 01-1.077 1.08 1.997 1.997 0 01-.763.148z" fill="#444053"/><path d="M624.69 137.99a4.836 4.836 0 004.832-4.84 4.836 4.836 0 00-4.832-4.84 4.836 4.836 0 00-4.832 4.84 4.836 4.836 0 004.832 4.84z" fill="#1E88E5"/><path d="M546.393 158.734h-41.512a1.68 1.68 0 00-1.678 1.681v27.064c0 .928.751 1.68 1.678 1.68h41.512c.927 0 1.678-.752 1.678-1.68v-27.064a1.68 1.68 0 00-1.678-1.681zm70.974 0h-57.141a.422.422 0 00-.421.422v3.997c0 .233.189.422.421.422h57.141a.422.422 0 00.421-.422v-3.997a.422.422 0 00-.421-.422zm0 10.372h-57.141a.422.422 0 00-.421.422v3.997c0 .233.189.422.421.422h57.141a.422.422 0 00.421-.422v-3.997a.422.422 0 00-.421-.422zm0 10.373h-57.141a.421.421 0 00-.421.421v3.997c0 .233.189.422.421.422h57.141a.422.422 0 00.421-.422V179.9a.421.421 0 00-.421-.421zm-70.974 26.967h-41.512c-.927 0-1.678.752-1.678 1.68v27.064a1.68 1.68 0 001.678 1.681h41.512a1.68 1.68 0 001.678-1.681v-27.064c0-.928-.751-1.68-1.678-1.68zm70.974 0h-57.141a.422.422 0 00-.421.422v3.996c0 .233.189.422.421.422h57.141a.422.422 0 00.421-.422v-3.996a.422.422 0 00-.421-.422zm0 10.372h-57.141a.422.422 0 00-.421.422v3.996c0 .233.189.422.421.422h57.141a.422.422 0 00.421-.422v-3.996a.422.422 0 00-.421-.422zm-.035 10.372h-57.071a.456.456 0 00-.456.456v3.928c0 .252.204.456.456.456h57.071a.456.456 0 00.456-.456v-3.928a.456.456 0 00-.456-.456zm-70.939 26.967h-41.512a1.68 1.68 0 00-1.678 1.681v27.064c0 .928.751 1.68 1.678 1.68h41.512c.927 0 1.678-.752 1.678-1.68v-27.064a1.68 1.68 0 00-1.678-1.681zm70.939 0h-57.071a.457.457 0 00-.456.457v3.927c0 .252.204.457.456.457h57.071a.457.457 0 00.456-.457v-3.927a.457.457 0 00-.456-.457zm0 10.372h-57.071a.457.457 0 00-.456.457v3.927c0 .252.204.457.456.457h57.071a.457.457 0 00.456-.457v-3.927a.457.457 0 00-.456-.457zm0 10.372h-57.071a.457.457 0 00-.456.457v3.927c0 .252.204.457.456.457h57.071a.457.457 0 00.456-.457v-3.927a.457.457 0 00-.456-.457zm-70.939 26.968h-41.512c-.927 0-1.678.752-1.678 1.68v27.064a1.68 1.68 0 001.678 1.681h41.512a1.68 1.68 0 001.678-1.681v-27.064c0-.928-.751-1.68-1.678-1.68zm70.939 0h-57.071a.456.456 0 00-.456.456v3.928c0 .252.204.456.456.456h57.071a.456.456 0 00.456-.456v-3.928a.456.456 0 00-.456-.456zm0 10.372h-57.071a.456.456 0 00-.456.456v3.928c0 .252.204.456.456.456h57.071a.456.456 0 00.456-.456v-3.928a.456.456 0 00-.456-.456zm0 10.372h-57.071a.456.456 0 00-.456.456v3.928c0 .252.204.456.456.456h57.071a.456.456 0 00.456-.456v-3.928a.456.456 0 00-.456-.456zm-70.939 26.967h-41.512a1.68 1.68 0 00-1.678 1.681v27.064c0 .928.751 1.68 1.678 1.68h41.512c.927 0 1.678-.752 1.678-1.68v-27.064a1.68 1.68 0 00-1.678-1.681zm70.939 0h-57.071a.457.457 0 00-.456.457v3.927c0 .252.204.457.456.457h57.071a.457.457 0 00.456-.457v-3.927a.457.457 0 00-.456-.457zm0 10.373h-57.071a.456.456 0 00-.456.456v3.927c0 .253.204.457.456.457h57.071a.456.456 0 00.456-.457v-3.927a.456.456 0 00-.456-.456zm0 10.372h-57.071a.456.456 0 00-.456.456v3.928c0 .252.204.456.456.456h57.071a.456.456 0 00.456-.456v-3.928a.456.456 0 00-.456-.456z" fill="#fff"/><path opacity=".1" d="M281.456 224.846h-70.98v3.685h70.98v-3.685zm-57.838-19.486h-6.833v19.486h6.833V205.36zm9.989 0h-6.834v19.486h6.834V205.36zm9.988 0h-6.834v19.486h6.834V205.36zm9.988 0h-6.834v19.486h6.834V205.36zm9.988 0h-6.834v19.486h6.834V205.36zm9.995 0h-6.834v19.486h6.834V205.36z" fill="#1E88E5"/><path opacity=".1" d="M223.618 209.046h-6.833v2.109h6.833v-2.109zm9.989 0h-6.834v2.109h6.834v-2.109zm9.988 0h-6.834v2.109h6.834v-2.109zm9.988 0h-6.834v2.109h6.834v-2.109zm9.988 0h-6.834v2.109h6.834v-2.109zm9.995 0h-6.834v2.109h6.834v-2.109zm-49.948 9.48h-6.833v2.109h6.833v-2.109zm9.989 0h-6.834v2.109h6.834v-2.109zm9.988 0h-6.834v2.109h6.834v-2.109zm9.988 0h-6.834v2.109h6.834v-2.109zm9.988 0h-6.834v2.109h6.834v-2.109zm9.995 0h-6.834v2.109h6.834v-2.109zm163.51 15.8h-70.98v3.685h70.98v-3.685zm-57.837-19.486h-6.834v19.486h6.834V214.84zm9.988 0h-6.834v19.486h6.834V214.84zm9.988 0h-6.834v19.486h6.834V214.84zm9.995 0h-6.834v19.486h6.834V214.84zm9.988 0h-6.833v19.486h6.833V214.84zm9.988 0h-6.833v19.486h6.833V214.84z" fill="#1E88E5"/><path opacity=".1" d="M379.239 218.526h-6.834v2.109h6.834v-2.109zm9.988 0h-6.834v2.109h6.834v-2.109zm9.988 0h-6.834v2.109h6.834v-2.109zm9.995 0h-6.834v2.109h6.834v-2.109zm9.988 0h-6.833v2.109h6.833v-2.109zm9.988 0h-6.833v2.109h6.833v-2.109zm-49.947 9.48h-6.834v2.109h6.834v-2.109zm9.988 0h-6.834v2.109h6.834v-2.109zm9.988 0h-6.834v2.109h6.834v-2.109zm9.995 0h-6.834v2.109h6.834v-2.109zm9.988 0h-6.833v2.109h6.833v-2.109zm9.988 0h-6.833v2.109h6.833v-2.109zm7.89 33.177h-70.98v3.685h70.98v-3.685zm-57.837-19.486h-6.834v19.486h6.834v-19.486zm9.988 0h-6.834v19.486h6.834v-19.486zm9.988 0h-6.834v19.486h6.834v-19.486zm9.995 0h-6.834v19.486h6.834v-19.486zm9.988 0h-6.833v19.486h6.833v-19.486zm9.988 0h-6.833v19.486h6.833v-19.486z" fill="#1E88E5"/><path opacity=".1" d="M379.239 245.382h-6.834v2.109h6.834v-2.109zm9.988 0h-6.834v2.109h6.834v-2.109zm9.988 0h-6.834v2.109h6.834v-2.109zm9.995 0h-6.834v2.109h6.834v-2.109zm9.988 0h-6.833v2.109h6.833v-2.109zm9.988 0h-6.833v2.109h6.833v-2.109zm-49.947 9.481h-6.834v2.109h6.834v-2.109zm9.988 0h-6.834v2.109h6.834v-2.109zm9.988 0h-6.834v2.109h6.834v-2.109zm9.995 0h-6.834v2.109h6.834v-2.109zm9.988 0h-6.833v2.109h6.833v-2.109zm9.988 0h-6.833v2.109h6.833v-2.109zm-175.168 11.658a19.667 19.667 0 01-1.45-2.137l10.223-1.68-11.044.083a18.735 18.735 0 01-.359-14.784l14.806 7.689-13.674-10.068a18.63 18.63 0 0111.968-8.939 18.602 18.602 0 0114.678 2.728 18.667 18.667 0 017.97 12.645 18.696 18.696 0 01-3.851 14.449 18.175 18.175 0 012.126 3.402l-13.267 6.915 14.144-4.751a18.697 18.697 0 01-3.003 17.501 18.693 18.693 0 01-4.739 27.383 18.618 18.618 0 01-9.895 2.849c-3.499 0-6.928-.988-9.894-2.849a18.656 18.656 0 01-6.875-7.675 18.697 18.697 0 012.136-19.708 18.687 18.687 0 010-23.074v.021z" fill="#1E88E5"/><path opacity=".1" d="M287.275 278.054c0 4.181-1.405 8.239-3.99 11.52a18.693 18.693 0 01-4.739 27.383 18.609 18.609 0 01-19.789 0 18.656 18.656 0 01-6.875-7.675 18.697 18.697 0 012.136-19.708c-2.506-3.16 33.257-13.615 33.257-11.52z" fill="#1E88E5"/><path opacity=".2" d="M271.633 324.757c.033.049.063.099.09.152H265.4c.035-.049.055-.104.09-.152a6.147 6.147 0 01-.815-3.119 6.411 6.411 0 01.38-2.199c.352.055.787.118 1.291.173 1.466.147 2.944.147 4.411 0a24.12 24.12 0 001.304-.166.07.07 0 000 .035 6.21 6.21 0 01.373 2.164 6.146 6.146 0 01-.801 3.112z" fill="#3F3D56"/><path opacity=".1" d="M248.91 324.909h-35.204a18.597 18.597 0 01.2-12.82 18.67 18.67 0 01-7.208-9.847 18.701 18.701 0 01.409-12.204 17.861 17.861 0 01-2.008-1.611l9.263-4.626-10.533 3.347a18.682 18.682 0 01-4.694-14.017l16.435 2.974-16.028-5.58a18.663 18.663 0 018.794-12.104 18.624 18.624 0 0126.191 8 18.702 18.702 0 01.557 14.96 18.904 18.904 0 013.058 2.662l-10.644 10.517 12.114-8.726a18.688 18.688 0 012.292 17.632 18.668 18.668 0 017.102 9.541 18.704 18.704 0 01-.096 11.902z" fill="#1E88E5"/><path opacity=".1" d="M248.91 324.909h-35.204a18.597 18.597 0 01.2-12.82c-3.313-2.296 27.77-22.867 28.384-20.862a18.617 18.617 0 01-.407 12.204 18.67 18.67 0 017.126 9.553 18.706 18.706 0 01-.099 11.925zm159.278-25.267a18.572 18.572 0 01-9.325 7.855c.167 1.331.192 2.675.076 4.011l-14.917-.899 14.572 3.167a18.697 18.697 0 01-2.223 5.642 18.354 18.354 0 01-4.97 5.463h-20.307v.532h-20.708a18.672 18.672 0 014.284-8.234 18.64 18.64 0 017.202-4.959c-.53-4.151.348-8.36 2.492-11.951a18.648 18.648 0 019.332-7.853 19.003 19.003 0 01-.152-2.579l9.629 3.81-9.525-5.608a18.676 18.676 0 017.31-12.847l8.773 14.23-6.578-15.669a18.613 18.613 0 0122.409 3.346 18.69 18.69 0 012.626 22.543z" fill="#1E88E5"/><path opacity=".1" d="M396.371 319.446a18.366 18.366 0 01-4.97 5.463h-20.307v.532h-20.708a18.672 18.672 0 014.284-8.234 18.63 18.63 0 017.202-4.959c-.173-1.383 3.838-1.176 9.187-.277 10.485 1.764 26.023 6.286 25.312 7.475z" fill="#1E88E5"/><path d="M308.348 269.653s2.554 13.83-3.147 18.345c-5.702 4.515 4.832 31.579 22.213 28.419 17.38-3.16 24.463-25.861 24.463-25.861s-17.409-3.609-10.955-21.954l-32.574 1.051z" fill="#EE8E9E"/><path opacity=".1" d="M308.348 269.653s2.554 13.83-3.147 18.345c-5.702 4.515 4.832 31.579 22.213 28.419 17.38-3.16 24.463-25.861 24.463-25.861s-17.409-3.609-10.955-21.954l-32.574 1.051z" fill="#000"/><path d="M323.734 279.804c15.917 0 28.819-12.925 28.819-28.869 0-15.944-12.902-28.869-28.819-28.869-15.916 0-28.818 12.925-28.818 28.869 0 15.944 12.902 28.869 28.818 28.869z" fill="#EE8E9E"/><path d="M371.094 305.817v19.624h-95.16v-18.732c0-2.375.698-4.698 2.008-6.678a12.075 12.075 0 015.357-4.455l2.726-1.161c6.903-2.946 15.29-6.604 18.03-8.125.3-.15.583-.333.842-.546 1.498-1.501 1.201.449 1.201.449s-.041.374-.069 1.017c-.165 4.418.47 21.781 20.784 20.336 19.818-1.383 20.708-14.812 20.508-18.76-.011-.365-.041-.73-.09-1.092 1.371.326 2.712.766 4.011 1.313 4.141 1.536 10.257 3.997 11.893 5.159.511.359 1.132.733 1.808 1.113.768.429 1.485.941 2.14 1.528a12.124 12.124 0 014.011 9.01z" fill="#1E88E5"/><path opacity=".1" d="M351.242 289.007c-1.678 7.786-6.944 22.37-25.927 22.75-20.225.401-21.398-19.749-21.267-25.467.305-.146.59-.33.849-.546 1.505-1.501 1.201.449 1.201.449s-2.547 23.005 20.708 21.353c23.255-1.653 20.398-19.845 20.398-19.845 0-.111 1.732.491 4.038 1.306z" fill="#000"/><path d="M289.622 252.38a4.929 4.929 0 015.197 1.902c1.049 1.473 1.208 3.25 1.339 4.951 1.25.262 1.954-1.155 2.071-2.227.463-4.363.497-8.809 1.961-13.027 1.463-4.218 4.659-8.298 9.567-9.909a11.08 11.08 0 015.225-.498c1.042.173 2.022.54 3.058.692 3.589.594 7.489-1.107 10.851.076 2.112.747 3.451 2.468 4.438 4.19a9.064 9.064 0 001.726 2.51c1.429 1.286 3.665 1.618 5.715 2.019s4.287 1.1 5.163 2.683c.787 1.431.207 3.084-.055 4.633a11.373 11.373 0 001.167 7.171c.379.691 1.152 1.528 2.071 1.299.411-.139.758-.421.98-.795 2.354-3.305 2.291-7.606 5.246-10.586.987-.996 2.264-1.77 3.223-2.766a6.288 6.288 0 001.671-5.698c-.532-2.282-2.354-4.149-3.824-6.154a24.21 24.21 0 01-4.094-8.512 1.548 1.548 0 010-1.113 2.963 2.963 0 011.05-.858 3.971 3.971 0 001.339-5.068c-.836-1.708-2.672-3.008-4.742-3.782a30.839 30.839 0 00-6.468-1.383c-1.45.207-3.148-.616-3.597-1.777-.2-.519-.2-1.079-.4-1.598a3.656 3.656 0 00-2.761-1.936 8.061 8.061 0 00-3.693.263c-1.38.387-2.947.968-4.141.29-.629-.352-.974-.995-1.65-1.286-1.381-.581-2.803.595-3.79 1.563a9.219 9.219 0 01-3.417 2.303 5.083 5.083 0 01-4.238-.284c-.945-.602-1.422-1.57-2.174-2.337a8.181 8.181 0 00-5.143-2.075 18.059 18.059 0 00-5.805.637 34.99 34.99 0 00-10.195 4.287 10.96 10.96 0 00-3.914 3.644 8.301 8.301 0 00-.876 3.754c-.152 4.087 1.201 8.388 4.728 11.251-2.154.899-2.878 3.104-3.382 5.061-.808 3.126-1.616 6.3-1.312 9.48.152 1.646.601 3.292.359 4.931-.194.771-.3 1.562-.317 2.357a2.263 2.263 0 001.843 1.722z" fill="#454B69"/><path opacity=".1" d="M359.787 237.714a6.771 6.771 0 01-1.242 1.839c-.96 1.01-2.237 1.791-3.224 2.766-2.954 2.96-2.892 7.288-5.246 10.593-.22.374-.568.655-.98.789-.897.235-1.671-.581-2.071-1.3a11.883 11.883 0 01-1.028-2.766l-.138.691a11.372 11.372 0 001.166 7.171c.38.691 1.153 1.528 2.071 1.3.411-.139.759-.421.98-.795 2.354-3.306 2.292-7.607 5.246-10.587.987-.996 2.264-1.77 3.224-2.766a6.287 6.287 0 001.67-5.697 7.396 7.396 0 00-.428-1.238zm-6.433-20.468a2.893 2.893 0 00-1.049.858 1.53 1.53 0 000 1.106c.272 1.075.62 2.128 1.042 3.153a3.97 3.97 0 001.339-5.068 4.791 4.791 0 00-.483-.809 3.963 3.963 0 01-.849.76zm-60.881 6.41a12.818 12.818 0 01-4.521-8.014 10.81 10.81 0 00-.208 1.881 14.422 14.422 0 002.271 8.553 4.844 4.844 0 012.458-2.42zm53.405 21.623c.263-1.556.842-3.209.055-4.633-.876-1.591-3.113-2.282-5.163-2.683-2.05-.401-4.286-.74-5.715-2.019a9.064 9.064 0 01-1.726-2.51c-.973-1.722-2.326-3.458-4.438-4.191-3.362-1.182-7.262.512-10.851-.076-1.036-.173-2.016-.532-3.058-.691a11.028 11.028 0 00-5.225.498c-4.908 1.618-8.104 5.697-9.567 9.909-1.464 4.211-1.498 8.657-1.961 13.027-.117 1.065-.821 2.489-2.071 2.226-.131-1.708-.29-3.457-1.339-4.957a4.933 4.933 0 00-5.197-1.895 2.53 2.53 0 01-1.457-.934 8.02 8.02 0 010 1.909 10.59 10.59 0 00-.317 2.358 2.258 2.258 0 001.801 1.777 4.923 4.923 0 015.198 1.901c1.049 1.473 1.208 3.25 1.339 4.951 1.249.263 1.953-1.154 2.071-2.226.462-4.363.497-8.81 1.96-13.028 1.464-4.218 4.659-8.297 9.567-9.908a11.083 11.083 0 015.226-.498c1.042.173 2.022.539 3.057.691 3.59.595 7.49-1.106 10.851.076 2.113.747 3.452 2.469 4.439 4.191a9.043 9.043 0 001.726 2.51c1.428 1.286 3.665 1.618 5.715 2.019s4.142 1.051 5.06 2.517c-.035-.104 0-.208.02-.311zm-57.74-2.151a13.205 13.205 0 00-.228-3.851 17.106 17.106 0 00-.131 4.038c0 .346.076.691.124 1.03.076-.408.179-.809.235-1.217z" fill="#000"/><path d="M254.356 353.342v-12.481a.353.353 0 01.352-.353h1.415a.353.353 0 01.352.353v5.193l5.743-5.331a.937.937 0 011.539.691v11.306a.935.935 0 01-1.066.9.936.936 0 01-.473-.209l-5.743-5.297v5.166a.353.353 0 01-.352.352h-1.415a.352.352 0 01-.352-.29zm138.764-12.481v12.481a.351.351 0 01-.359.353h-1.38a.354.354 0 01-.353-.353v-5.193l-5.743 5.324a.946.946 0 01-1.383-.199.952.952 0 01-.163-.492v-11.347a.956.956 0 01.56-.826.946.946 0 01.986.134l5.743 5.297v-5.158a.354.354 0 01.353-.353h1.38a.355.355 0 01.359.332zm-71.726 13.02h-2.809a1.383 1.383 0 01-1.38-1.383v-10.33a1.383 1.383 0 011.38-1.383h2.809a1.381 1.381 0 011.381 1.383v10.33a1.383 1.383 0 01-1.381 1.383zm8.905-1.383v-10.33a1.381 1.381 0 00-1.381-1.383h-2.837a1.38 1.38 0 00-1.38 1.383v10.33a1.383 1.383 0 001.38 1.383h2.81a1.374 1.374 0 001.3-.847 1.39 1.39 0 00.108-.536z" fill="#444053"/><path opacity=".6" d="M406.566 324.037H240.903v1.847h165.663v-1.847z" fill="#444053"/><path d="M292.058 329.334c2.413 0 4.37-1.96 4.37-4.377a4.374 4.374 0 00-4.37-4.377 4.373 4.373 0 00-4.369 4.377 4.373 4.373 0 004.369 4.377z" fill="#444053"/><path d="M292.058 324.037h-51.155v1.847h51.155v-1.847z" fill="#444053"/><path d="M660.639 532.419c22.672 0 41.05-3.541 41.05-7.91s-18.378-7.911-41.05-7.911c-22.671 0-41.05 3.542-41.05 7.911s18.379 7.91 41.05 7.91z" fill="#1E88E5"/><path d="M659.956 527.413c2.638 0 4.777-2.805 4.777-6.265 0-3.46-2.139-6.265-4.777-6.265-2.638 0-4.777 2.805-4.777 6.265 0 3.46 2.139 6.265 4.777 6.265z" fill="#3F3D56"/><path d="M659.956 519.751c2.638 0 4.777-2.804 4.777-6.264 0-3.46-2.139-6.265-4.777-6.265-2.638 0-4.777 2.805-4.777 6.265 0 3.46 2.139 6.264 4.777 6.264z" fill="#3F3D56"/><path d="M659.956 512.097c2.638 0 4.777-2.805 4.777-6.265 0-3.46-2.139-6.265-4.777-6.265-2.638 0-4.777 2.805-4.777 6.265 0 3.46 2.139 6.265 4.777 6.265z" fill="#3F3D56"/><path d="M659.956 504.435c2.638 0 4.777-2.804 4.777-6.264 0-3.46-2.139-6.265-4.777-6.265-2.638 0-4.777 2.805-4.777 6.265 0 3.46 2.139 6.264 4.777 6.264z" fill="#3F3D56"/><path d="M659.956 496.774c2.638 0 4.777-2.805 4.777-6.265 0-3.46-2.139-6.264-4.777-6.264-2.638 0-4.777 2.804-4.777 6.264 0 3.46 2.139 6.265 4.777 6.265z" fill="#3F3D56"/><path d="M659.956 489.112c2.638 0 4.777-2.805 4.777-6.264 0-3.46-2.139-6.265-4.777-6.265-2.638 0-4.777 2.805-4.777 6.265 0 3.459 2.139 6.264 4.777 6.264z" fill="#3F3D56"/><path d="M659.956 481.451c2.638 0 4.777-2.805 4.777-6.265 0-3.46-2.139-6.265-4.777-6.265-2.638 0-4.777 2.805-4.777 6.265 0 3.46 2.139 6.265 4.777 6.265z" fill="#3F3D56"/><path d="M677.841 422.773a23.868 23.868 0 001.781-2.628l-12.563-2.074 13.584.103a23.038 23.038 0 00.435-18.172l-18.209 9.474 16.801-12.371a22.888 22.888 0 00-14.702-10.872 22.866 22.866 0 00-17.962 3.368 22.94 22.94 0 00-9.78 15.463 22.972 22.972 0 004.631 17.709 23.406 23.406 0 00-2.609 4.148l16.304 8.485-17.381-5.843a22.975 22.975 0 003.686 21.532 22.958 22.958 0 00-2.592 24.191 22.908 22.908 0 008.444 9.415 22.852 22.852 0 0024.287 0 22.908 22.908 0 008.444-9.415 22.967 22.967 0 00-2.592-24.191 22.971 22.971 0 000-28.35l-.007.028z" fill="#1E88E5"/><path opacity=".1" d="M636.963 436.948a22.845 22.845 0 004.894 14.175 22.97 22.97 0 00-2.592 24.191 22.914 22.914 0 008.444 9.415 22.854 22.854 0 0024.287 0 22.914 22.914 0 008.444-9.415 22.97 22.97 0 00-2.592-24.191c3.064-3.893-40.885-16.747-40.885-14.175z" fill="#000"/><path opacity=".1" d="M200.177 575c37.741 0 68.336-6.501 68.336-14.521s-30.595-14.521-68.336-14.521-68.336 6.501-68.336 14.521S162.436 575 200.177 575z" fill="#1E88E5"/><path d="M223.059 558.792c-1.38-.505-2.857-.422-4.3-.581a13.299 13.299 0 01-7.91-3.844 14.511 14.511 0 01-3.162-4.841c.456.166.911.339 1.381.526-1.381-3.229.069-6.853 1.339-10.116a437.912 437.912 0 006.109-16.686c4.831-14.168 8.973-28.903 8.883-43.977 0-5.449-1.001-10.6-1.194-16.042-.145-4.039.476-8.07.449-12.115 0-.567 0-1.127-.042-1.694a10.74 10.74 0 003.638-8.754 20.992 20.992 0 00-.366-2.545 41.281 41.281 0 00-.966-4.328c-.456-1.501-1.077-2.939-1.608-4.405-1.029-2.842-1.726-5.801-2.603-8.692.325.034.642.12.939.256a2.03 2.03 0 01-.442-.906 22.439 22.439 0 01-.828-5.649l.587-.263a14.742 14.742 0 00-.283-5.594c.331-2.966.849-5.953 1.166-8.906.118-1.106.069-2.496-.945-2.766-.208-1.583-.29-3.188-.373-4.785-.29-5.573-.578-11.144-.863-16.713-.29-5.594-.58-11.181-.69-16.782-.076-3.554-.118-7.233-.96-10.635a12.878 12.878 0 00-.49-4.84c-1.284-4.073-5.273-7.302-9.318-7.074a18.583 18.583 0 00-4.411-4.467c.807-1.811 1.774-3.678 2.568-5.144 6.474-2.109 11.209-8.505 11.209-16.111a17.61 17.61 0 00-1.898-8.015c.119-.305.22-.616.304-.933a7.68 7.68 0 00-.311-4.488 13.2 13.2 0 00-.69-1.604 18.217 18.217 0 00-.573-1.023l-.352-.533a9.974 9.974 0 00-.69-.94 22.98 22.98 0 00-1.574-1.895 15.615 15.615 0 00-2.264-2.019 9.979 9.979 0 00-3.727-1.722 11.343 11.343 0 00-2.368-.214c-.476 0-.96 0-1.436.042-.966.055-1.926.124-2.885.117-.318 0-.642 0-.96-.048a35.032 35.032 0 01-4.997-1.044l-.828-.173c-.283-.056-.56-.104-.843-.139a15.854 15.854 0 00-2.284-.138h-.767c-.765.037-1.528.116-2.284.235l-.76.118a21.786 21.786 0 00-5.556 1.652c-.228.104-.463.222-.691.346l-.138.076a9.379 9.379 0 00-.552.311l-.103.063-.587.373-.048.035c-5.481 3.692-8.718 10.69-9.54 17.632-.918 7.793.69 15.648 2.299 23.317l1.449 6.914c.062.311.131.616.194.927a15.2 15.2 0 00-4.549 6.32c-1.381 3.457-1.415 7.198-1.305 10.946 0 .76.042 1.521.117 2.282a83.211 83.211 0 00-.421 4.335c-.434 6.707.38 13.449.166 20.17-.166 5.18-.946 10.373-.566 15.517.331 4.564 1.553 8.989 2.761 13.394l1.74 6.278c.056.325.207.626.434.865.286.192.636.264.974.2a58.78 58.78 0 00-2.83 7.938 24.595 24.595 0 00-1.022 5.103c-.228 3.167.504 6.314 1.236 9.391 1.104 4.609 2.204 9.238 3.299 13.884.773 3.25 1.544 6.498 2.312 9.743 1.519 6.403 3.045 12.848 3.328 19.437a42.305 42.305 0 01-.691 9.882 86.259 86.259 0 00-.856 29.615 145.392 145.392 0 005.585 24.485 25.525 25.525 0 011.705-.829l-.242.449a55.742 55.742 0 00-2.209 4.253c-.456.943-.85 1.916-1.18 2.911-.884 2.766-1.022 5.711-1.146 8.622a4.229 4.229 0 00.145 1.667c.38 1.044 1.47 1.576 2.485 1.867 2.982.85 6.081.546 9.18.145.015.069.036.136.063.2.379 1.045 1.463 1.577 2.484 1.867 4.266 1.217 8.767.07 13.164-.345s8.718-.111 12.949-1.127a6.166 6.166 0 001.795-.692 5.881 5.881 0 002.264-3.146c.132-.33.221-.677.262-1.03.173-1.515-1.118-2.849-2.485-3.354zm-14.599-64.037a17.473 17.473 0 01-1.38 4.688 89.538 89.538 0 00-7.082 22.245 103.267 103.267 0 00-1.567 15.385c-.069 3.803.076 7.786-1.505 11.202l.573-.09c-.18.332-.352.691-.518.954l-.083.152a15.005 15.005 0 01-1.884-5.296c0-.063-.311-.111-.787-.139a143.353 143.353 0 01-2.016-33.114 15.35 15.35 0 01.553-3.976c.352-1.114.945-2.13 1.38-3.209a23.613 23.613 0 001.381-5.628 80.104 80.104 0 00.869-14.881c-.165-4.695.918-9.362 1.843-14.037.442-2.219.849-4.446 1.07-6.672l.042-.45a67.038 67.038 0 018.476 22.044 31.57 31.57 0 01.635 10.822zm-29.543-99.932l.221.194a15.29 15.29 0 011.836 1.929c.276.303.475.669.58 1.065.207 1.01-.628 1.867-1.312 2.607-.297.321-.576.658-.835 1.009a863.425 863.425 0 00-.469-6.804h-.021z" fill="url(#paint0_linear)"/><path d="M169.363 351.482l-.759 5.871c-.255 1.991-.511 3.976-.649 5.974-.462 6.652.394 13.332.173 19.997-.18 5.131-.994 10.255-.601 15.379.352 4.522 1.636 8.92 2.92 13.276l1.823 6.223c.062.325.221.624.455.857.351.209.768.275 1.167.187l8.09-.733c-.518-2.378-1.091-4.84-1.381-7.281-.221-1.908-.352-3.831-.49-5.753-.428-5.988-.918-11.976-1.381-17.978l-.862-10.511c-.366-4.563-.746-9.148-1.892-13.58a27.038 27.038 0 00-6.613-11.928z" fill="#1E88E5"/><path opacity=".1" d="M169.363 351.482l-.759 5.871c-.255 1.991-.511 3.976-.649 5.974-.462 6.652.394 13.332.173 19.997-.18 5.131-.994 10.255-.601 15.379.352 4.522 1.636 8.92 2.92 13.276l1.823 6.223c.062.325.221.624.455.857.351.209.768.275 1.167.187l8.09-.733c-.518-2.378-1.091-4.84-1.381-7.281-.221-1.908-.352-3.831-.49-5.753-.428-5.988-.918-11.976-1.381-17.978l-.862-10.511c-.366-4.563-.746-9.148-1.892-13.58a27.038 27.038 0 00-6.613-11.928z" fill="#000"/><path d="M183.776 551.331c-.475.936-.89 1.901-1.242 2.89-.925 2.732-1.063 5.664-1.201 8.547a4.144 4.144 0 00.152 1.653c.4 1.037 1.546 1.562 2.616 1.846 4.48 1.21 9.201.076 13.805-.339 4.604-.415 9.153-.111 13.598-1.113a6.933 6.933 0 001.885-.657 5.882 5.882 0 002.381-3.112c.134-.328.224-.672.269-1.023.145-1.521-1.173-2.835-2.609-3.333-1.436-.498-3.003-.422-4.514-.574a14.202 14.202 0 01-8.311-3.81 14.248 14.248 0 01-4.28-8.09c-.055-.332-7.482-.132-8.283.297-.911.505-1.463 1.756-1.981 2.607a61.137 61.137 0 00-2.285 4.211z" fill="#A26565"/><path opacity=".1" d="M183.776 551.331c-.475.936-.89 1.901-1.242 2.89-.925 2.732-1.063 5.664-1.201 8.547a4.144 4.144 0 00.152 1.653c.4 1.037 1.546 1.562 2.616 1.846 4.48 1.21 9.201.076 13.805-.339 4.604-.415 9.153-.111 13.598-1.113a6.933 6.933 0 001.885-.657 5.882 5.882 0 002.381-3.112c.134-.328.224-.672.269-1.023.145-1.521-1.173-2.835-2.609-3.333-1.436-.498-3.003-.422-4.514-.574a14.202 14.202 0 01-8.311-3.81 14.248 14.248 0 01-4.28-8.09c-.055-.332-7.482-.132-8.283.297-.911.505-1.463 1.756-1.981 2.607a61.137 61.137 0 00-2.285 4.211z" fill="#000"/><path d="M196.097 553.53a23.693 23.693 0 00-1.242 2.883c-.932 2.766-1.07 5.663-1.201 8.547a4.033 4.033 0 00.152 1.652c.393 1.038 1.539 1.563 2.609 1.854 4.48 1.203 9.208.069 13.805-.346 4.597-.415 9.16-.111 13.599-1.113a6.65 6.65 0 001.884-.692 5.851 5.851 0 002.381-3.112c.134-.327.225-.672.27-1.023.145-1.514-1.174-2.835-2.61-3.333-1.435-.498-3.002-.415-4.514-.574a14.215 14.215 0 01-8.308-3.808 14.258 14.258 0 01-4.282-8.085c-.056-.332-7.483-.138-8.284.29-.918.505-1.47 1.757-1.988 2.607-.786 1.404-1.56 2.815-2.271 4.253z" fill="#A26565"/><path d="M228.216 480.075c.096 14.942-4.239 29.546-9.326 43.562a399.3 399.3 0 01-6.412 16.534c-1.34 3.236-2.851 6.831-1.416 10.026-4.141-1.577-8.352-2.503-12.707-1.777 1.656-3.388 1.498-7.33 1.574-11.064a97.093 97.093 0 011.629-15.247 85.158 85.158 0 017.448-22.051 16.826 16.826 0 001.442-4.646c.566-3.555.124-7.206-.614-10.725a64.006 64.006 0 00-8.905-21.851l-.041.443a64.666 64.666 0 01-1.118 6.617c-.974 4.626-2.112 9.259-1.94 13.913a75.39 75.39 0 01-.911 14.749 22.454 22.454 0 01-1.484 5.573c-.476 1.072-1.098 2.074-1.47 3.188a14.487 14.487 0 00-.58 3.941c-.552 11.25 0 22.673 2.291 33.702-3.844-.304-7.689.809-11.127 2.538a137.586 137.586 0 01-5.867-24.271 80.787 80.787 0 01.897-29.359 39.04 39.04 0 00.725-9.785c-.297-6.534-1.898-12.923-3.492-19.271l-2.43-9.681a6733.83 6733.83 0 00-3.452-13.767c-.766-3.049-1.539-6.168-1.297-9.307.168-1.722.529-3.42 1.077-5.062a56.531 56.531 0 017.641-15.655c13.301.747 26.761-.497 40.035-1.521a2.685 2.685 0 011.878.318c.452.461.722 1.07.759 1.715l4.991 28.35a71.408 71.408 0 011.415 11.963c0 4.01-.622 8.007-.47 12.011.207 5.393 1.229 10.496 1.257 15.897z" fill="#454B69"/><path opacity=".1" d="M200.902 463.279a64.62 64.62 0 01-1.118 6.617c-2.893-5.013-6.013-9.901-8.677-15.039-.69-1.321-1.339-2.662-1.995-4.004l-1.967-4.01a56.49 56.49 0 01-1.063-2.275 16.454 16.454 0 01-1.236-3.457c.967-.18 3.355 2.433 4.073 3.118a55.754 55.754 0 014.141 4.591 50.24 50.24 0 014.321 5.67 27.608 27.608 0 013.521 8.789z" fill="#000"/><path d="M211.981 325.738s-7.386 11.79-6.02 14.259c1.367 2.468-23.262-2.192-23.262-2.192s13.412-11.79 12.039-16.727c-1.374-4.937 17.243 4.66 17.243 4.66z" fill="#EFB7B9"/><path d="M205.416 329.306c9.222 0 16.698-7.489 16.698-16.726 0-9.238-7.476-16.727-16.698-16.727-9.222 0-16.697 7.489-16.697 16.727 0 9.237 7.475 16.726 16.697 16.726z" fill="#EFB7B9"/><path d="M212.229 338.102a16.957 16.957 0 00-7.02-5.656 24.993 24.993 0 00-4.991-1.231l-6.661-1.176c-1.629-.29-3.375-.56-4.894.111a8 8 0 00-2.07 1.528c-2.313 2.151-4.556 4.509-7.462 5.753-.794.339-1.622.588-2.416.927-3.251 1.383-5.681 4.328-7.055 7.606-1.449 3.416-1.491 7.129-1.38 10.842a19.108 19.108 0 00.379 3.817 24.67 24.67 0 001.264 3.499 64.308 64.308 0 012.305 7.419 235.067 235.067 0 014.307 20.053c.098.968.381 1.907.836 2.766a9.916 9.916 0 002.305 2.22 14.342 14.342 0 011.926 1.915c.289.285.505.636.628 1.023.214.996-.69 1.854-1.38 2.58a12.479 12.479 0 00-3.12 5.441 2.189 2.189 0 00-.497 1.501c.143.379.198.786.158 1.189-.136.367-.35.7-.628.975a3.699 3.699 0 00-.69 2.96 46.772 46.772 0 0016.345 3.83c1.381.07 2.761.07 4.142.236.98.124 1.947.325 2.927.442 1.422.134 2.852.171 4.279.111 7.435-.152 15.083-.339 21.909-3.292.642-3.505-.745-7.08-1.615-10.538-1.38-5.531-1.725-11.195-2.761-16.775-.69-3.81-1.726-7.564-2.312-11.402-.587-3.838-.691-7.814.331-11.548.932-3.305 1.215-6.679 2.181-9.978.967-3.298 1.643-6.873.553-10.137-1.381-4.038-5.571-7.239-9.823-7.011z" fill="#1E88E5"/><path d="M220.429 303.708c.815-2.966-.787-6.057-2.692-8.471-2.071-2.593-4.707-4.93-7.945-5.58-2.63-.532-5.356.111-8.034-.103-2.368-.187-4.646-1.045-7-1.383a22.118 22.118 0 00-6.405.242 24.235 24.235 0 00-5.833 1.632c-7.11 3.16-11.272 10.946-12.238 18.669-.967 7.724.724 15.51 2.409 23.109l1.525 6.873c1.588 7.157 3.175 14.342 3.596 21.657.421 7.316-.366 14.826-3.368 21.505a46.23 46.23 0 0021.212-24.056c1.077-2.828 1.877-5.767 3.078-8.547 1.029-2.392 2.347-4.66 3.258-7.101a23.1 23.1 0 001.457-8.623c-.055-2.213-.421-4.411-.359-6.624s.628-4.515 2.153-6.12c1.381-1.417 3.279-2.074 5.026-2.994a20.922 20.922 0 007.033-5.877c1.098-1.438 1.16-2.075 1.436-3.707.276-1.631 1.263-2.931 1.691-4.501z" fill="#A26565"/><path d="M220.45 429.355c.173 1.722-.138 3.458.235 5.166.283 1.272.939 2.42 1.325 3.664.383 1.438.58 2.918.587 4.405.055 1.245-.042 2.766-1.146 3.347-.483.256-1.063.256-1.567.477-.504.221-.932.823-.642 1.293.29.47.787.394 1.243.484.455.09.945.56.69.94a.786.786 0 01-.4.256 4.855 4.855 0 00-1.298.623 1.329 1.329 0 00-.532 1.265.792.792 0 00.433.525.782.782 0 00.679-.013 3.461 3.461 0 00-.325 1.383c1.767.76 3.748-.235 5.405-1.197.716-.4 1.408-.843 2.071-1.327a10.372 10.372 0 004.031-8.83 20.66 20.66 0 00-.393-2.524 38.038 38.038 0 00-1.015-4.294c-.476-1.487-1.125-2.904-1.684-4.363-1.188-3.105-1.954-6.355-3.031-9.501a1.443 1.443 0 00-.517-.823 1.453 1.453 0 00-.767-.145 12.508 12.508 0 00-3.596.332c-.69.207-1.87.691-2.195 1.383-.324.691.193 1.272.504 1.846a15.495 15.495 0 011.905 5.628z" fill="#EFB7B9"/><path opacity=".1" d="M219.325 345.335c.354.363.652.778.883 1.231 2.375 4.321 2.403 9.487 2.513 14.417.124 5.531.428 11.063.732 16.63l.904 16.595c.09 1.583.172 3.167.4 4.736 1.063.27 1.105 1.653.987 2.766-.766 6.763-2.664 13.726-.69 20.233.076.334.235.643.463.899a5.387 5.387 0 00-3.086-.042c-.987.208-1.94.574-2.934.802-1.256.284-2.678.408-3.534 1.383a68.72 68.72 0 01-2.312-8.934c-.469-2.765-.601-5.614-1.719-8.173-.449-1.03-1.056-1.984-1.608-2.973-2.892-5.172-4.314-11.015-5.702-16.782a24.562 24.562 0 01-.442-8.339c.201-1.27.317-2.552.346-3.838a29.499 29.499 0 00-.532-4.038 27.114 27.114 0 01.808-11.693c1.035-3.519 1.946-7.226 4.141-10.185 2.195-2.96 6.717-4.647 10.382-4.695z" fill="#000"/><path d="M220.146 344.781c.355.367.653.784.884 1.238 2.374 4.315 2.402 9.487 2.513 14.417.124 5.532.428 11.064.731 16.596l.904 16.595c.09 1.583.173 3.167.401 4.737 1.063.269 1.104 1.652.98 2.766-.759 6.762-2.658 13.718-.69 20.232.076.334.235.643.462.899a5.383 5.383 0 00-3.085-.042c-.987.208-1.94.574-2.934.796-1.256.29-2.678.408-3.534 1.382a67.968 67.968 0 01-2.292-8.975c-.469-2.766-.6-5.608-1.719-8.166a33.135 33.135 0 00-1.608-2.973c-2.899-5.173-4.314-11.022-5.701-16.789a24.511 24.511 0 01-.442-8.339c.52-2.607.456-5.297-.187-7.876a27.097 27.097 0 01.808-11.686c1.035-3.52 1.947-7.226 4.142-10.186 2.195-2.959 6.702-4.57 10.367-4.626z" fill="#1E88E5"/><path opacity=".1" d="M217.737 295.237c-2.07-2.593-4.707-4.93-7.945-5.58-2.63-.532-5.356.111-8.034-.103-2.368-.187-4.646-1.045-7-1.383a22.118 22.118 0 00-6.405.242 24.235 24.235 0 00-5.833 1.632 17.224 17.224 0 00-2.878 1.638 24.532 24.532 0 015.156-1.383 22.076 22.076 0 016.399-.242c2.36.305 4.631 1.155 7.006 1.342 2.671.214 5.398-.422 8.035.104 3.237.65 5.887 2.994 7.938 5.587 1.912 2.406 3.506 5.497 2.699 8.47-.428 1.563-1.422 2.932-1.692 4.543-.269 1.611-.338 2.268-1.442 3.706a20.976 20.976 0 01-5.067 4.723c.532-.249 1.077-.498 1.595-.767a20.925 20.925 0 007.033-5.878c1.098-1.438 1.16-2.074 1.436-3.706.276-1.632 1.263-2.974 1.691-4.543.815-2.897-.787-5.988-2.692-8.402zm-12.494 25.592c.286-.297.598-.568.932-.809-1.594.774-3.272 1.452-4.493 2.766-1.526 1.597-2.071 3.906-2.154 6.119-.083 2.213.311 4.412.359 6.618a23.13 23.13 0 01-1.456 8.629c-.912 2.441-2.23 4.702-3.258 7.102-1.195 2.765-1.995 5.711-3.072 8.539a46.307 46.307 0 01-17.54 21.864c-.041.09-.076.187-.117.277a46.23 46.23 0 0021.212-24.056c1.077-2.828 1.877-5.767 3.078-8.547 1.029-2.392 2.347-4.66 3.258-7.101a23.1 23.1 0 001.457-8.623c-.055-2.213-.421-4.411-.359-6.624s.628-4.55 2.153-6.154z" fill="#000"/></g><defs><linearGradient id="paint0_linear" x1="197.885" y1="569.005" x2="197.885" y2="285.571" gradientUnits="userSpaceOnUse"><stop stop-color="gray" stop-opacity=".25"/><stop offset=".54" stop-color="gray" stop-opacity=".12"/><stop offset="1" stop-color="gray" stop-opacity=".1"/></linearGradient><clipPath id="clip0"><path fill="#fff" d="M0 0h780v575H0z"/></clipPath></defs></svg>