<svg width="28" height="28" fill="none" xmlns="http://www.w3.org/2000/svg"><path d="M25.667 3.5H2.333A2.336 2.336 0 000 5.833v16.334A2.336 2.336 0 002.333 24.5h23.334A2.336 2.336 0 0028 22.167V5.833A2.336 2.336 0 0025.667 3.5zM2.333 4.667h23.334c.086 0 .161.031.242.049-2.02 1.849-8.718 7.976-11.062 10.088-.184.166-.48.363-.847.363s-.663-.197-.847-.363C10.809 12.692 4.11 6.564 2.09 4.716c.08-.018.156-.05.242-.05zm-1.166 17.5V5.833c0-.114.034-.218.065-.322 1.546 1.415 6.22 5.69 9.25 8.447-3.02 2.594-7.695 7.027-9.254 8.513-.027-.1-.061-.197-.061-.304zm24.5 1.166H2.333c-.093 0-.176-.032-.263-.053 1.61-1.535 6.315-5.993 9.283-8.532.387.351.74.671 1.019.922.48.434 1.043.663 1.628.663s1.147-.229 1.627-.662c.28-.251.633-.572 1.02-.923 2.968 2.539 7.672 6.996 9.283 8.532-.087.02-.17.053-.263.053zm1.166-1.166c0 .107-.034.204-.061.304-1.56-1.487-6.234-5.919-9.254-8.513 3.03-2.756 7.703-7.032 9.25-8.447.03.104.065.208.065.322v16.334z" fill="#fff"/></svg>