<svg width="28" height="28" fill="none" xmlns="http://www.w3.org/2000/svg"><path d="M22.166 26.833c2.439 0 4.084-1.715 4.568-4.713a2.916 2.916 0 00-.583-2.2l-.094-.087-3.54-2.8a2.917 2.917 0 00-3.67.14L17.32 18.62c-3.185-.723-7.758-4.853-7.986-7.898l1.511-1.593a2.917 2.917 0 00.11-3.657l-2.788-3.53a.426.426 0 00-.104-.099 2.917 2.917 0 00-2.194-.583c-2.987.49-4.702 2.135-4.702 4.573a21 21 0 0021 21zM6.055 2.421c.083-.006.167-.006.25 0 .36.001.71.113 1.004.32l2.724 3.442a1.75 1.75 0 01-.052 2.17l-1.657 1.75a.583.583 0 00-.158.397c0 3.757 5.42 8.692 9.24 9.333a.583.583 0 00.496-.151l1.75-1.64a1.75 1.75 0 012.176-.075l3.471 2.73c.262.362.37.812.303 1.254-.285 1.692-1.102 3.716-3.436 3.716A19.833 19.833 0 012.334 5.833c0-2.333 2.024-3.15 3.722-3.412z" fill="#fff"/></svg>