<svg width="36" height="36" fill="none" xmlns="http://www.w3.org/2000/svg"><path d="M18 36c9.941 0 18-8.059 18-18S27.941 0 18 0 0 8.059 0 18s8.059 18 18 18z" fill="url(#paint0_linear)"/><path d="M21.824 8h-7.64a6.18 6.18 0 00-6.176 6.176v7.64a6.18 6.18 0 006.176 6.176h7.64A6.18 6.18 0 0028 21.816v-7.64A6.18 6.18 0 0021.824 8zm3.944 13.824a3.955 3.955 0 01-3.952 3.952h-7.64a3.955 3.955 0 01-3.952-3.952v-7.64a3.955 3.955 0 013.952-3.952h7.64a3.955 3.955 0 013.952 3.952v7.64z" fill="#fff"/><path d="M18 12.89A5.121 5.121 0 0012.888 18 5.121 5.121 0 0018 23.113a5.121 5.121 0 005.112-5.112A5.121 5.121 0 0018 12.89zm0 8.215a3.107 3.107 0 01-3.104-3.104A3.107 3.107 0 0118 14.897a3.107 3.107 0 013.104 3.104A3.107 3.107 0 0118 21.105zm5.501-7.655a.864.864 0 10-.276-1.706.864.864 0 00.276 1.705z" fill="#fff"/><defs><linearGradient id="paint0_linear" x1="4.294" y1="31.706" x2="29.874" y2="6.126" gradientUnits="userSpaceOnUse"><stop stop-color="#FEE411"/><stop offset=".052" stop-color="#FEDB16"/><stop offset=".138" stop-color="#FEC125"/><stop offset=".248" stop-color="#FE983D"/><stop offset=".376" stop-color="#FE5F5E"/><stop offset=".5" stop-color="#FE2181"/><stop offset="1" stop-color="#9000DC"/></linearGradient></defs></svg>