<?xml version="1.0" standalone="no"?>
<!DOCTYPE svg PUBLIC "-//W3C//DTD SVG 20010904//EN"
 "http://www.w3.org/TR/2001/REC-SVG-20010904/DTD/svg10.dtd">
<svg version="1.0" xmlns="http://www.w3.org/2000/svg"
 width="260.000000pt" height="260.000000pt" viewBox="0 0 260.000000 260.000000"
 preserveAspectRatio="xMidYMid meet">
<metadata>
Created by potrace 1.14, written by Peter Selinger 2001-2017
</metadata>
<g transform="translate(0.000000,260.000000) scale(0.100000,-0.100000)"
fill="#000000" stroke="none">
<path d="M131 2182 c18 -31 49 -86 69 -122 21 -36 48 -85 62 -110 14 -25 56
-101 95 -170 39 -69 86 -154 106 -190 20 -36 82 -148 140 -250 l104 -185 87 0
c48 0 91 4 95 10 7 9 144 250 219 385 14 25 105 188 203 363 99 175 179 319
179 321 0 2 -46 4 -103 4 l-103 0 -48 -87 c-26 -47 -59 -106 -73 -131 -14 -25
-79 -142 -145 -260 -175 -313 -219 -390 -223 -390 -2 0 -10 12 -18 28 -8 15
-44 80 -81 146 -36 65 -66 122 -66 127 0 5 -4 9 -10 9 -5 0 -10 5 -10 10 0 6
-29 61 -64 123 -35 61 -75 135 -90 162 -16 28 -55 98 -88 157 l-61 107 -104 0
-104 1 32 -58z"/>
<path d="M1844 1848 l-1 -163 -101 -3 -102 -3 0 -84 0 -85 100 0 c55 0 100 -3
101 -7 0 -5 2 -172 3 -373 1 -201 6 -383 10 -405 20 -96 91 -191 171 -229 96
-46 235 -59 360 -33 l60 13 3 82 3 83 -27 -7 c-48 -12 -218 -9 -257 5 -69 24
-108 67 -125 141 -3 14 -6 183 -6 375 l-1 350 188 3 187 2 0 85 0 85 -187 2
-188 3 0 160 -1 160 -95 3 -95 3 0 -163z"/>
<path d="M728 840 c-22 -6 -23 -8 -23 -165 -1 -88 1 -166 3 -172 3 -9 31 -13
93 -13 l89 0 0 175 c0 160 -2 175 -17 176 -10 0 -41 1 -70 2 -29 1 -62 0 -75
-3z"/>
</g>
</svg>
